<?xml version="1.0" encoding="utf-8"?>
<svg x="157.696pt" y="91.3519pt" width="1663.67pt" height="618.46pt" viewBox="157.696 91.3519 1663.67 618.46" xmlns="http://www.w3.org/2000/svg" xmlns:xlink="http://www.w3.org/1999/xlink">
  <g id="1">
    <title>Layer 2</title>
    <defs>
      <title>Text Copy</title>
      <g id="2">
        <defs>
          <path id="3" d="M736.186,494.492 C736.186,494.492,688.786,494.492,688.786,494.492 C688.786,494.492,688.786,271.892,688.786,271.892 C688.786,271.892,736.186,266.792,736.186,266.792 C736.186,266.792,736.186,494.492,736.186,494.492 z M787.486,405.692 C787.486,405.692,844.186,494.492,844.186,494.492 C844.186,494.492,790.186,494.492,790.186,494.492 C790.186,494.492,737.986,407.192,737.986,407.192 C737.986,407.192,790.486,335.192,790.486,335.192 C790.486,335.192,839.986,335.192,839.986,335.192 C839.986,335.192,787.486,405.692,787.486,405.692 z M937.786,329.792 C961.986,329.792,980.936,337.442,994.636,352.742 C1008.34,368.042,1015.19,388.592,1015.19,414.392 C1015.19,441.192,1008.39,462.092,994.786,477.092 C981.186,492.092,962.186,499.592,937.786,499.592 C913.386,499.592,894.386,492.142,880.786,477.242 C867.186,462.342,860.386,441.492,860.386,414.692 C860.386,397.692,863.436,382.842,869.536,370.142 C875.636,357.442,884.536,347.542,896.236,340.442 C907.936,333.342,921.786,329.792,937.786,329.792 z M937.786,364.892 C927.986,364.892,920.786,368.842,916.186,376.742 C911.586,384.642,909.286,397.292,909.286,414.692 C909.286,432.292,911.586,445.042,916.186,452.942 C920.786,460.842,927.986,464.792,937.786,464.792 C947.586,464.792,954.786,460.792,959.386,452.792 C963.986,444.792,966.286,431.992,966.286,414.392 C966.286,397.192,963.986,384.642,959.386,376.742 C954.786,368.842,947.586,364.892,937.786,364.892 z M1170.29,330.392 C1179.89,330.392,1188.69,331.992,1196.69,335.192 C1196.69,335.192,1187.99,401.792,1187.99,401.792 C1187.99,401.792,1157.99,401.792,1157.99,401.792 C1157.99,401.792,1157.99,372.392,1157.99,372.392 C1149.19,373.992,1141.39,378.792,1134.59,386.792 C1127.79,394.792,1122.49,404.892,1118.69,417.092 C1118.69,417.092,1118.69,462.692,1118.69,462.692 C1118.69,462.692,1150.19,462.692,1150.19,462.692 C1150.19,462.692,1150.19,494.492,1150.19,494.492 C1150.19,494.492,1050.29,494.492,1050.29,494.492 C1050.29,494.492,1050.29,462.692,1050.29,462.692 C1050.29,462.692,1071.29,462.692,1071.29,462.692 C1071.29,462.692,1071.29,366.692,1071.29,366.692 C1071.29,366.692,1050.29,366.692,1050.29,366.692 C1050.29,366.692,1050.29,335.192,1050.29,335.192 C1050.29,335.192,1107.59,335.192,1107.59,335.192 C1107.59,335.192,1115.99,370.892,1115.99,370.892 C1121.79,357.292,1129.09,347.142,1137.89,340.442 C1146.69,333.742,1157.49,330.392,1170.29,330.392 z M1228.79,335.192 C1228.79,335.192,1270.19,335.192,1270.19,335.192 C1270.19,335.192,1273.49,353.492,1273.49,353.492 C1280.69,345.492,1288.24,339.542,1296.14,335.642 C1304.04,331.742,1312.99,329.792,1322.99,329.792 C1336.79,329.792,1347.54,333.992,1355.24,342.392 C1362.94,350.792,1366.79,362.492,1366.79,377.492 C1366.79,377.492,1366.79,494.492,1366.79,494.492 C1366.79,494.492,1319.39,494.492,1319.39,494.492 C1319.39,494.492,1319.39,391.292,1319.39,391.292 C1319.39,381.292,1318.29,374.392,1316.09,370.592 C1313.89,366.792,1309.89,364.892,1304.09,364.892 C1299.29,364.892,1294.64,366.442,1290.14,369.542 C1285.64,372.642,1280.99,377.192,1276.19,383.192 C1276.19,383.192,1276.19,494.492,1276.19,494.492 C1276.19,494.492,1228.79,494.492,1228.79,494.492 C1228.79,494.492,1228.79,335.192,1228.79,335.192 z M1449.89,428.792 C1452.89,452.992,1465.69,465.092,1488.29,465.092 C1501.89,465.092,1515.49,460.692,1529.09,451.892 C1529.09,451.892,1547.99,477.692,1547.99,477.692 C1540.19,484.492,1530.89,489.842,1520.09,493.742 C1509.29,497.642,1497.39,499.592,1484.39,499.592 C1466.59,499.592,1451.49,496.042,1439.09,488.942 C1426.69,481.842,1417.34,471.942,1411.04,459.242 C1404.74,446.542,1401.59,431.792,1401.59,414.992 C1401.59,398.992,1404.64,384.542,1410.74,371.642 C1416.84,358.742,1425.74,348.542,1437.44,341.042 C1449.14,333.542,1463.09,329.792,1479.29,329.792 C1494.49,329.792,1507.69,333.042,1518.89,339.542 C1530.09,346.042,1538.74,355.442,1544.84,367.742 C1550.94,380.042,1553.99,394.692,1553.99,411.692 C1553.99,418.292,1553.69,423.992,1553.09,428.792 C1553.09,428.792,1449.89,428.792,1449.89,428.792 z M1479.29,361.592 C1470.69,361.592,1463.79,364.742,1458.59,371.042 C1453.39,377.342,1450.29,386.992,1449.29,399.992 C1449.29,399.992,1507.79,399.992,1507.79,399.992 C1507.39,374.392,1497.89,361.592,1479.29,361.592 z M1732.19,485.192 C1717.19,494.792,1699.79,499.592,1679.99,499.592 C1659.59,499.592,1644.24,494.392,1633.94,483.992 C1623.64,473.592,1618.49,458.992,1618.49,440.192 C1618.49,440.192,1618.49,367.892,1618.49,367.892 C1618.49,367.892,1585.19,367.892,1585.19,367.892 C1585.19,367.892,1585.19,335.192,1585.19,335.192 C1585.19,335.192,1618.49,335.192,1618.49,335.192 C1618.49,335.192,1618.49,300.692,1618.49,300.692 C1618.49,300.692,1665.89,294.992,1665.89,294.992 C1665.89,294.992,1665.89,335.192,1665.89,335.192 C1665.89,335.192,1717.19,335.192,1717.19,335.192 C1717.19,335.192,1712.39,367.892,1712.39,367.892 C1712.39,367.892,1665.89,367.892,1665.89,367.892 C1665.89,367.892,1665.89,440.192,1665.89,440.192 C1665.89,447.992,1667.69,453.592,1671.29,456.992 C1674.89,460.392,1680.69,462.092,1688.69,462.092 C1698.69,462.092,1707.99,459.692,1716.59,454.892 C1716.59,454.892,1732.19,485.192,1732.19,485.192 z"/>
        </defs>
        <use xlink:href="#3" style="fill:#3da8f4;fill-opacity:1;fill-rule:nonzero;opacity:1;stroke:none;"/>
      </g>
    </defs>
    <use xlink:href="#2"/>
  </g>
  <g id="4">
    <title>Layer 3</title>
    <defs>
      <title>Shape 669</title>
      <g id="5">
        <defs>
          <path id="6" d="M353.726,603.83 C353.726,603.83,344.888,612.669,344.888,612.669 C344.888,612.669,318.075,639.481,318.075,639.481 C318.075,639.481,368.985,690.391,368.985,690.391 C368.985,690.391,395.797,663.578,395.797,663.578 C395.797,663.578,404.636,654.74,404.636,654.74 C404.636,654.74,413.475,663.578,413.475,663.578 C413.475,663.578,440.287,690.391,440.287,690.391 C440.287,690.391,491.196,639.481,491.196,639.481 C491.196,639.481,464.384,612.669,464.384,612.669 C464.384,612.669,455.545,603.83,455.545,603.83 C455.545,603.83,455.545,603.83,455.545,603.83 C455.545,603.83,464.384,594.991,464.384,594.991 C464.384,594.991,491.196,568.179,491.196,568.179 C491.196,568.179,440.287,517.27,440.287,517.27 C440.287,517.27,413.475,544.082,413.475,544.082 C413.475,544.082,404.636,552.921,404.636,552.921 C404.636,552.921,395.797,544.082,395.797,544.082 C395.797,544.082,368.985,517.27,368.985,517.27 C368.985,517.27,318.075,568.179,318.075,568.179 C318.075,568.179,344.888,594.991,344.888,594.991 C344.888,594.991,353.726,603.83,353.726,603.83 z"/>
        </defs>
        <use xlink:href="#6" style="fill:#3da8f4;fill-opacity:1;fill-rule:evenodd;opacity:1;stroke:none;"/>
      </g>
    </defs>
    <use xlink:href="#5"/>
    <defs>
      <title>Shape 665</title>
      <g id="7">
        <defs>
          <path id="8" d="M500.982,593.749 C500.982,593.749,568.31,566.765,568.31,566.765 C568.31,566.765,567.715,529.952,557.806,504.11 C552.078,489.173,529.758,459.984,509.535,440.505 C496.734,428.176,463.426,408.164,444.674,380.314 C438.394,370.989,424.74,327.754,424.74,327.754 C424.74,327.754,455.817,337.484,467.426,338.346 C475.356,338.935,507.006,334.578,507.006,334.578 C507.006,334.578,538.467,359.529,554.525,364.903 C557.991,366.062,572.742,366.323,572.742,366.323 C572.742,366.323,592.527,349.778,592.527,349.778 C592.527,349.778,590.146,334.869,590.146,334.869 C590.146,334.869,608.011,334.869,608.011,334.869 C608.011,334.869,611.823,310.462,611.823,310.462 C611.823,310.462,604.406,280.79,596.773,269.906 C588.662,258.34,542.884,224.246,542.884,224.246 C542.884,224.246,528.013,191.802,510.455,177.645 C498.863,168.298,441.716,149.041,441.716,149.041 C441.716,149.041,447.618,117.685,447.618,117.685 C447.618,117.685,440.665,117.685,440.665,117.685 C440.665,117.685,412.551,124.762,404.636,132.076 C396.959,139.17,376.518,162.662,376.518,162.662 C376.518,162.662,373.389,152.616,364.352,150.84 C356.901,149.376,332.765,155.769,329.131,165.027 C327.86,168.266,334.43,181.597,334.43,181.597 C334.43,181.597,329.131,185.586,329.131,185.586 C329.131,185.586,322.337,174.981,318.664,174.6 C310.461,173.748,285.752,188.165,284.69,197.972 C284.238,202.148,296.559,215.298,296.559,215.298 C296.559,215.298,293.554,219.327,293.554,219.327 C293.554,219.327,278.686,208.071,274.012,209.275 C266.365,211.246,249.779,231.958,252.003,242.057 C253.048,246.804,270.575,257.734,270.575,257.734 C270.575,257.734,267.642,261.426,267.642,261.426 C267.642,261.426,248.778,251.304,243.752,253.628 C236.646,256.913,224.786,280.07,228.902,289.846 C230.726,294.177,249.02,301.981,249.02,301.981 C249.02,301.981,246.9,306.96,246.9,306.96 C246.9,306.96,227.532,299.447,222.987,302.303 C216.386,306.452,207.944,330.933,213.107,340.013 C215.569,344.344,235.653,350.61,235.653,350.61 C235.653,350.61,212.376,347.603,208.768,350.61 C202.841,355.55,195.779,379.29,201.811,388.554 C204.786,393.123,227.075,398.799,227.075,398.799 C227.075,398.799,205.186,399.729,201.811,403.313 C196.676,408.766,190.738,431.852,197.448,440.505 C200.738,444.748,223.279,447.82,223.279,447.82 C223.279,447.82,200.483,450.02,197.448,453.845 C192.521,460.053,189.504,485.409,197.448,493.473 C201.034,497.113,222.663,497.577,222.663,497.577 C222.663,497.577,200.252,500.817,197.448,504.493 C192.756,510.646,190.984,534.048,197.448,543.18 C212.562,564.533,313.34,603.83,313.34,603.83 C313.34,603.83,318.371,603.83,318.371,603.83 C309.434,594.893,300.496,585.955,291.559,577.018 C288.613,574.072,285.666,571.125,282.72,568.179 C285.666,565.233,288.613,562.287,291.559,559.34 C314.421,536.478,337.284,513.616,360.146,490.753 C363.092,487.807,366.039,484.861,368.985,481.914 C371.931,484.861,374.877,487.807,377.824,490.753 C386.761,499.691,395.698,508.628,404.636,517.565 C413.573,508.628,422.511,499.691,431.448,490.753 C434.394,487.807,437.34,484.861,440.287,481.914 C443.233,484.861,446.179,487.807,449.126,490.753 C471.988,513.616,494.85,536.478,517.713,559.34 C520.659,562.287,523.605,565.233,526.551,568.179 C523.605,571.125,520.659,574.072,517.713,577.018 C512.136,582.595,506.559,588.172,500.982,593.749 z M305.87,297.172 C305.872,297.167,305.875,297.161,305.877,297.156 C305.877,297.156,305.877,297.155,305.877,297.155 C318.917,265.987,333.86,235.659,354.898,209.242 C361.973,200.371,369.571,192.072,378.493,185.43 C376.733,182.599,374.973,179.768,373.214,176.937 C362.215,182.678,352.461,190.462,343.579,198.663 C317.039,223.152,296.491,253.764,280.784,285.755 C280.781,285.761,280.779,285.767,280.776,285.772 C268.239,311.264,259.217,338.524,253.747,366.4 C248.266,394.283,246.319,422.778,247.734,450.96 C248.892,474.019,252.052,497.193,258.452,519.412 C261.712,518.719,264.973,518.027,268.233,517.334 C265.247,495.376,265.462,473.216,267.16,451.193 C269.235,424.445,273.889,398.137,280.513,372.448 C287.147,346.758,295.732,321.682,305.87,297.172 z"/>
        </defs>
        <use xlink:href="#8" style="fill:#3da8f4;fill-opacity:1;fill-rule:evenodd;opacity:1;stroke:none;"/>
      </g>
    </defs>
    <use xlink:href="#7"/>
  </g>
</svg>
