<?xml version="1.0" encoding="utf-8"?>
<svg x="0pt" y="0pt" width="200pt" height="200pt" viewBox="0 0 200 200" xmlns="http://www.w3.org/2000/svg" xmlns:xlink="http://www.w3.org/1999/xlink">
  <g id="1">
    <title>Layer 1</title>
    <defs>
      <title>Shape 669</title>
      <g id="2">
        <defs>
          <path id="3" d="M83.0754,169.771 C83.0754,169.771,79.9887,172.858,79.9887,172.858 C79.9887,172.858,70.6254,182.221,70.6254,182.221 C70.6254,182.221,88.404,200,88.404,200 C88.404,200,97.7673,190.637,97.7673,190.637 C97.7673,190.637,100.854,187.55,100.854,187.55 C100.854,187.55,103.941,190.637,103.941,190.637 C103.941,190.637,113.304,200,113.304,200 C113.304,200,131.083,182.221,131.083,182.221 C131.083,182.221,121.719,172.858,121.719,172.858 C121.719,172.858,118.633,169.771,118.633,169.771 C118.633,169.771,118.633,169.771,118.633,169.771 C118.633,169.771,121.719,166.685,121.719,166.685 C121.719,166.685,131.083,157.321,131.083,157.321 C131.083,157.321,113.304,139.543,113.304,139.543 C113.304,139.543,103.941,148.906,103.941,148.906 C103.941,148.906,100.854,151.993,100.854,151.993 C100.854,151.993,97.7673,148.906,97.7673,148.906 C97.7673,148.906,88.404,139.543,88.404,139.543 C88.404,139.543,70.6254,157.321,70.6254,157.321 C70.6254,157.321,79.9887,166.685,79.9887,166.685 C79.9887,166.685,83.0754,169.771,83.0754,169.771 z"/>
        </defs>
        <use xlink:href="#3" style="fill:#000000;fill-opacity:1;fill-rule:evenodd;opacity:1;stroke:none;"/>
      </g>
    </defs>
    <use xlink:href="#2"/>
    <defs>
      <title>Shape 665</title>
      <g id="4">
        <defs>
          <path id="5" d="M134.5,166.251 C134.5,166.251,158.012,156.828,158.012,156.828 C158.012,156.828,157.804,143.972,154.344,134.947 C152.344,129.731,144.549,119.537,137.487,112.735 C133.017,108.429,121.385,101.441,114.836,91.7153 C112.643,88.4586,107.875,73.3602,107.875,73.3602 C107.875,73.3602,118.727,76.758,122.782,77.0592 C125.551,77.265,136.604,75.7434,136.604,75.7434 C136.604,75.7434,147.591,84.4567,153.198,86.3332 C154.409,86.7382,159.56,86.8293,159.56,86.8293 C159.56,86.8293,166.469,81.0515,166.469,81.0515 C166.469,81.0515,165.638,75.8449,165.638,75.8449 C165.638,75.8449,171.877,75.8449,171.877,75.8449 C171.877,75.8449,173.208,67.3215,173.208,67.3215 C173.208,67.3215,170.618,56.9595,167.952,53.1584 C165.119,49.1195,149.133,37.2133,149.133,37.2133 C149.133,37.2133,143.94,25.8832,137.808,20.9391 C133.76,17.6751,113.803,10.9502,113.803,10.9502 C113.803,10.9502,115.864,1.77337e-05,115.864,1.77337e-05 C115.864,1.77337e-05,113.436,1.77337e-05,113.436,1.77337e-05 C113.436,1.77337e-05,103.618,2.47125,100.854,5.02549 C98.1731,7.50287,91.0349,15.7069,91.0349,15.7069 C91.0349,15.7069,89.9419,12.1986,86.7863,11.5784 C84.184,11.067,75.7554,13.2996,74.4864,16.5327 C74.0425,17.6638,76.3369,22.3192,76.3369,22.3192 C76.3369,22.3192,74.4864,23.7123,74.4864,23.7123 C74.4864,23.7123,72.1137,20.0089,70.8311,19.8757 C67.9664,19.5781,59.3375,24.613,58.9667,28.0379 C58.8088,29.4962,63.1115,34.0882,63.1115,34.0882 C63.1115,34.0882,62.062,35.4954,62.062,35.4954 C62.062,35.4954,56.8697,31.5644,55.2376,31.985 C52.5671,32.6732,46.7748,39.9064,47.5516,43.4332 C47.9167,45.091,54.0374,48.908,54.0374,48.908 C54.0374,48.908,53.0132,50.197,53.0132,50.197 C53.0132,50.197,46.4254,46.6624,44.6703,47.4739 C42.1887,48.6213,38.0468,56.708,39.4843,60.122 C40.1211,61.6344,46.51,64.3598,46.51,64.3598 C46.51,64.3598,45.7697,66.0986,45.7697,66.0986 C45.7697,66.0986,39.0059,63.4747,37.4189,64.4722 C35.1136,65.921,32.1654,74.4704,33.9683,77.6412 C34.8283,79.1538,41.842,81.3421,41.842,81.3421 C41.842,81.3421,33.7133,80.2919,32.453,81.3421 C30.3832,83.0669,27.917,91.3578,30.0235,94.5928 C31.0625,96.1885,38.8462,98.1705,38.8462,98.1705 C38.8462,98.1705,31.2023,98.4953,30.0235,99.747 C28.2305,101.651,26.1569,109.713,28.5,112.735 C29.649,114.217,37.5206,115.29,37.5206,115.29 C37.5206,115.29,29.56,116.058,28.5,117.394 C26.7795,119.562,25.7259,128.416,28.5,131.232 C29.7522,132.504,37.3057,132.666,37.3057,132.666 C37.3057,132.666,29.4791,133.797,28.5,135.081 C26.8615,137.23,26.2426,145.402,28.5,148.591 C33.778,156.048,68.9716,169.771,68.9716,169.771 C68.9716,169.771,70.7286,169.771,70.7286,169.771 C67.6075,166.65,64.4864,163.529,61.3653,160.408 C60.3364,159.379,59.3075,158.35,58.2786,157.321 C59.3075,156.292,60.3364,155.264,61.3653,154.235 C69.3493,146.251,77.3333,138.267,85.3173,130.283 C86.3462,129.254,87.3751,128.225,88.404,127.196 C89.4329,128.225,90.4618,129.254,91.4907,130.283 C94.6118,133.404,97.7329,136.525,100.854,139.646 C103.975,136.525,107.096,133.404,110.217,130.283 C111.246,129.254,112.275,128.225,113.304,127.196 C114.333,128.225,115.362,129.254,116.391,130.283 C124.375,138.267,132.359,146.251,140.343,154.235 C141.372,155.264,142.4,156.293,143.429,157.321 C142.4,158.35,141.372,159.379,140.343,160.408 C138.395,162.356,136.448,164.303,134.5,166.251 z M66.363,62.6805 C66.3639,62.6786,66.3648,62.6766,66.3657,62.6747 C66.3657,62.6747,66.3655,62.6746,66.3655,62.6746 C70.9192,51.79,76.1377,41.1989,83.4845,31.9735 C85.9553,28.8754,88.6086,25.9773,91.7244,23.6578 C91.1099,22.6692,90.4954,21.6805,89.8808,20.6919 C86.04,22.6967,82.6334,25.4153,79.5319,28.2792 C70.2633,36.8312,63.0876,47.5215,57.6025,58.6934 C57.6016,58.6954,57.6007,58.6974,57.5998,58.6993 C53.2215,67.6014,50.0711,77.1214,48.1606,86.8561 C46.2465,96.5936,45.5668,106.545,46.061,116.386 C46.4651,124.439,47.5689,132.532,49.8036,140.291 C50.9423,140.049,52.0809,139.807,53.2196,139.565 C52.1767,131.897,52.2517,124.158,52.8449,116.468 C53.5694,107.127,55.1948,97.9393,57.508,88.9683 C59.8245,79.9967,62.8226,71.2399,66.363,62.6805 z"/>
        </defs>
        <use xlink:href="#5" style="fill:#000000;fill-opacity:1;fill-rule:evenodd;opacity:1;stroke:none;"/>
      </g>
    </defs>
    <use xlink:href="#4"/>
  </g>
</svg>
