<?xml version="1.0" encoding="utf-8"?>
<svg x="0pt" y="0pt" width="2908.75pt" height="800pt" viewBox="0 0 2908.75 800" xmlns="http://www.w3.org/2000/svg" xmlns:xlink="http://www.w3.org/1999/xlink">
  <g id="1">
    <title>Layer 2</title>
    <defs>
      <title>Path</title>
      <g id="2">
        <defs>
          <path id="3" d="M400.458,2.60473e-05 C400.458,2.60473e-05,2508.75,2.60473e-05,2508.75,2.60473e-05 C2508.75,2.60473e-05,2508.75,800,2508.75,800 C2508.75,800,400.458,800,400.458,800 C400.458,800,400.458,2.60473e-05,400.458,2.60473e-05 z"/>
        </defs>
        <use xlink:href="#3" style="fill:#000204;fill-opacity:1;fill-rule:evenodd;opacity:1;stroke:none;"/>
        <use xlink:href="#3" style="fill:none;opacity:1;stroke:#000000;stroke-linecap:butt;stroke-linejoin:miter;stroke-miterlimit:10;stroke-opacity:1;stroke-width:1;"/>
      </g>
    </defs>
    <use xlink:href="#2"/>
    <defs>
      <title>Path</title>
      <g id="4">
        <defs>
          <path id="5" d="M400.458,2.23468e-06 C621.372,2.23468e-06,800.458,179.086,800.458,400 C800.458,620.914,621.372,800,400.458,800 C179.544,800,0.458225,620.914,0.458225,400 C0.458225,179.086,179.544,2.23468e-06,400.458,2.23468e-06 z"/>
        </defs>
        <use xlink:href="#5" style="fill:#000204;fill-opacity:1;fill-rule:evenodd;opacity:1;stroke:none;"/>
      </g>
    </defs>
    <use xlink:href="#4"/>
    <defs>
      <title>Path</title>
      <g id="6">
        <defs>
          <path id="7" d="M2508.75,0 C2729.66,0,2908.75,179.086,2908.75,400 C2908.75,620.914,2729.66,800,2508.75,800 C2287.83,800,2108.75,620.914,2108.75,400 C2108.75,179.086,2287.83,0,2508.75,0 z"/>
        </defs>
        <use xlink:href="#7" style="fill:#000204;fill-opacity:1;fill-rule:evenodd;opacity:1;stroke:none;"/>
      </g>
    </defs>
    <use xlink:href="#6"/>
    <g id="8">
      <title>Layer 5</title>
    </g>
    <defs>
      <title>Path Copy</title>
      <g id="9">
        <defs>
          <path id="10" d="M596.146,348.869 C596.146,348.869,614.011,348.869,614.011,348.869 C614.011,348.869,617.823,324.462,617.823,324.462 C617.823,324.462,610.406,294.79,602.773,283.906 C594.662,272.34,548.884,238.246,548.884,238.246 C548.884,238.246,534.013,205.802,516.455,191.645 C504.863,182.298,447.716,163.041,447.716,163.041 C447.716,163.041,453.618,131.685,453.618,131.685 C453.618,131.685,446.665,131.685,446.665,131.685 C446.665,131.685,418.551,138.762,410.636,146.076 C402.959,153.17,382.518,176.662,382.518,176.662 C382.518,176.662,379.389,166.616,370.352,164.84 C362.901,163.376,338.765,169.769,335.131,179.027 C333.86,182.266,340.43,195.597,340.43,195.597 C340.43,195.597,335.131,199.586,335.131,199.586 C335.131,199.586,328.337,188.981,324.664,188.6 C316.461,187.748,291.752,202.165,290.69,211.972 C290.238,216.148,302.559,229.298,302.559,229.298 C302.559,229.298,299.554,233.327,299.554,233.327 C299.554,233.327,284.686,222.071,280.012,223.275 C272.365,225.246,255.779,245.958,258.003,256.057 C259.048,260.804,276.575,271.734,276.575,271.734 C276.575,271.734,273.642,275.425,273.642,275.425 C273.642,275.425,254.778,265.304,249.752,267.628 C242.646,270.913,230.786,294.07,234.902,303.846 C236.726,308.177,255.02,315.981,255.02,315.981 C255.02,315.981,252.9,320.96,252.9,320.96 C252.9,320.96,233.532,313.447,228.987,316.303 C222.386,320.452,213.944,344.933,219.107,354.013 C221.569,358.344,241.653,364.61,241.653,364.61 C241.653,364.61,218.376,361.603,214.768,364.61 C208.841,369.549,201.779,393.29,207.811,402.554 C210.786,407.123,233.075,412.799,233.075,412.799 C233.075,412.799,211.186,413.729,207.811,417.313 C202.676,422.766,196.738,445.852,203.448,454.505 C206.738,458.748,229.279,461.82,229.279,461.82 C229.279,461.82,206.483,464.02,203.448,467.845 C198.521,474.053,195.504,499.409,203.448,507.473 C207.034,511.112,228.663,511.577,228.663,511.577 C228.663,511.577,206.252,514.817,203.448,518.493 C198.756,524.646,196.984,548.048,203.448,557.18 C218.562,578.533,319.34,617.83,319.34,617.83 C319.34,617.83,481.828,617.83,481.828,617.83 C481.828,617.83,574.31,580.765,574.31,580.765 C574.31,580.765,573.715,543.952,563.806,518.11 C558.078,503.173,535.758,473.984,515.535,454.505 C502.734,442.176,469.426,422.164,450.674,394.314 C444.394,384.989,430.74,341.754,430.74,341.754 C430.74,341.754,461.817,351.484,473.426,352.346 C481.356,352.935,513.006,348.578,513.006,348.578 C513.006,348.578,544.467,373.529,560.525,378.903 C563.991,380.062,578.742,380.323,578.742,380.323 C578.742,380.323,598.527,363.778,598.527,363.778 C598.527,363.778,596.146,348.869,596.146,348.869 z"/>
        </defs>
        <use xlink:href="#10" style="fill:#ac4efe;fill-opacity:1;fill-rule:nonzero;opacity:1;stroke:none;"/>
      </g>
    </defs>
    <use xlink:href="#9"/>
    <defs>
      <title>Path Copy Copy</title>
      <g id="11">
        <defs>
          <path id="12" d="M577.507,331.869 C577.507,331.869,595.372,331.869,595.372,331.869 C595.372,331.869,599.185,307.462,599.185,307.462 C599.185,307.462,591.768,277.79,584.134,266.906 C576.023,255.34,530.245,221.246,530.245,221.246 C530.245,221.246,515.374,188.802,497.816,174.645 C486.224,165.298,429.077,146.041,429.077,146.041 C429.077,146.041,434.979,114.685,434.979,114.685 C434.979,114.685,428.026,114.685,428.026,114.685 C428.026,114.685,399.912,121.762,391.997,129.076 C384.32,136.17,363.88,159.662,363.88,159.662 C363.88,159.662,360.75,149.616,351.714,147.84 C344.262,146.376,320.126,152.769,316.493,162.027 C315.221,165.266,321.791,178.597,321.791,178.597 C321.791,178.597,316.493,182.586,316.493,182.586 C316.493,182.586,309.698,171.981,306.026,171.6 C297.822,170.748,273.113,185.165,272.051,194.972 C271.599,199.148,283.92,212.298,283.92,212.298 C283.92,212.298,280.915,216.327,280.915,216.327 C280.915,216.327,266.047,205.071,261.373,206.275 C253.726,208.246,237.14,228.958,239.364,239.057 C240.409,243.804,257.936,254.734,257.936,254.734 C257.936,254.734,255.003,258.425,255.003,258.425 C255.003,258.425,236.139,248.304,231.113,250.628 C224.007,253.913,212.147,277.07,216.263,286.846 C218.087,291.177,236.382,298.981,236.382,298.981 C236.382,298.981,234.262,303.96,234.262,303.96 C234.262,303.96,214.893,296.447,210.349,299.303 C203.747,303.452,195.305,327.933,200.468,337.013 C202.931,341.344,223.014,347.61,223.014,347.61 C223.014,347.61,199.738,344.603,196.129,347.61 C190.202,352.549,183.14,376.29,189.172,385.554 C192.147,390.123,214.436,395.799,214.436,395.799 C214.436,395.799,192.547,396.729,189.172,400.313 C184.038,405.766,178.1,428.852,184.809,437.505 C188.1,441.748,210.64,444.82,210.64,444.82 C210.64,444.82,187.845,447.02,184.809,450.845 C179.883,457.053,176.866,482.409,184.809,490.473 C188.395,494.112,210.025,494.577,210.025,494.577 C210.025,494.577,187.613,497.817,184.809,501.493 C180.117,507.646,178.345,531.048,184.809,540.18 C199.923,561.533,300.701,600.83,300.701,600.83 C300.701,600.83,463.189,600.83,463.189,600.83 C463.189,600.83,555.671,563.765,555.671,563.765 C555.671,563.765,555.076,526.952,545.167,501.11 C539.44,486.173,517.12,456.984,496.896,437.505 C484.095,425.176,450.787,405.164,432.035,377.314 C425.755,367.989,412.101,324.754,412.101,324.754 C412.101,324.754,443.178,334.484,454.787,335.346 C462.717,335.935,494.367,331.578,494.367,331.578 C494.367,331.578,525.828,356.529,541.886,361.903 C545.352,363.062,560.103,363.323,560.103,363.323 C560.103,363.323,579.888,346.778,579.888,346.778 C579.888,346.778,577.507,331.869,577.507,331.869 z"/>
        </defs>
        <use xlink:href="#12" style="fill:#ac4efe;fill-opacity:1;fill-rule:nonzero;opacity:1;stroke:none;"/>
      </g>
    </defs>
    <use xlink:href="#11"/>
    <defs>
      <title>Path Copy Copy Copy</title>
      <g id="13">
        <defs>
          <path id="14" d="M590.146,334.869 C590.146,334.869,608.011,334.869,608.011,334.869 C608.011,334.869,611.823,310.462,611.823,310.462 C611.823,310.462,604.406,280.79,596.773,269.906 C588.662,258.34,542.884,224.246,542.884,224.246 C542.884,224.246,528.013,191.802,510.455,177.645 C498.863,168.298,441.716,149.041,441.716,149.041 C441.716,149.041,447.618,117.685,447.618,117.685 C447.618,117.685,440.665,117.685,440.665,117.685 C440.665,117.685,412.551,124.762,404.636,132.076 C396.959,139.17,376.518,162.662,376.518,162.662 C376.518,162.662,373.389,152.616,364.352,150.84 C356.901,149.376,332.765,155.769,329.131,165.027 C327.86,168.266,334.43,181.597,334.43,181.597 C334.43,181.597,329.131,185.586,329.131,185.586 C329.131,185.586,322.337,174.981,318.664,174.6 C310.461,173.748,285.752,188.165,284.69,197.972 C284.238,202.148,296.559,215.298,296.559,215.298 C296.559,215.298,293.554,219.327,293.554,219.327 C293.554,219.327,278.686,208.071,274.012,209.275 C266.365,211.246,249.779,231.958,252.003,242.057 C253.048,246.804,270.575,257.734,270.575,257.734 C270.575,257.734,267.642,261.425,267.642,261.425 C267.642,261.425,248.778,251.304,243.752,253.628 C236.646,256.913,224.786,280.07,228.902,289.846 C230.726,294.177,249.02,301.981,249.02,301.981 C249.02,301.981,246.9,306.96,246.9,306.96 C246.9,306.96,227.532,299.447,222.987,302.303 C216.386,306.452,207.944,330.933,213.107,340.013 C215.569,344.344,235.653,350.61,235.653,350.61 C235.653,350.61,212.376,347.603,208.768,350.61 C202.841,355.549,195.779,379.29,201.811,388.554 C204.786,393.123,227.075,398.799,227.075,398.799 C227.075,398.799,205.186,399.729,201.811,403.313 C196.676,408.766,190.738,431.852,197.448,440.505 C200.738,444.748,223.279,447.82,223.279,447.82 C223.279,447.82,200.483,450.02,197.448,453.845 C192.521,460.053,189.504,485.409,197.448,493.473 C201.034,497.112,222.663,497.577,222.663,497.577 C222.663,497.577,200.252,500.817,197.448,504.493 C192.756,510.646,190.984,534.048,197.448,543.18 C212.562,564.533,313.34,603.83,313.34,603.83 C313.34,603.83,475.828,603.83,475.828,603.83 C475.828,603.83,568.31,566.765,568.31,566.765 C568.31,566.765,567.715,529.952,557.806,504.11 C552.078,489.173,529.758,459.984,509.535,440.505 C496.734,428.176,463.426,408.164,444.674,380.314 C438.394,370.989,424.74,327.754,424.74,327.754 C424.74,327.754,455.817,337.484,467.426,338.346 C475.356,338.935,507.006,334.578,507.006,334.578 C507.006,334.578,538.467,359.529,554.525,364.903 C557.991,366.062,572.742,366.323,572.742,366.323 C572.742,366.323,592.527,349.778,592.527,349.778 C592.527,349.778,590.146,334.869,590.146,334.869 z"/>
        </defs>
        <use xlink:href="#14" style="fill:#37d7ff;fill-opacity:1;fill-rule:nonzero;opacity:1;stroke:none;"/>
      </g>
    </defs>
    <use xlink:href="#13"/>
    <defs>
      <title>Text</title>
      <g id="15">
        <defs>
          <path id="16" d="M859.133,489.318 C866.533,489.318,873.686,487.899,880.593,485.063 C887.499,482.226,894.899,478.094,902.793,472.668 C902.793,472.668,928.693,509.668,928.693,509.668 C919.319,517.561,908.466,523.851,896.133,528.538 C883.799,533.224,870.356,535.568,855.803,535.568 C834.836,535.568,816.768,531.251,801.598,522.618 C786.428,513.984,774.773,501.898,766.633,486.358 C758.493,470.818,754.423,452.811,754.423,432.338 C754.423,411.864,758.616,393.611,767.003,377.578 C775.389,361.544,787.291,348.964,802.708,339.838 C818.124,330.711,836.193,326.148,856.913,326.148 C871.466,326.148,884.539,328.183,896.133,332.253 C907.726,336.323,918.579,342.551,928.693,350.938 C928.693,350.938,903.533,386.088,903.533,386.088 C889.226,376.221,874.549,371.288,859.503,371.288 C830.149,371.288,815.473,391.638,815.473,432.338 C815.473,452.811,819.296,467.426,826.943,476.183 C834.589,484.939,845.319,489.318,859.133,489.318 z M1035.25,352.418 C1051.78,334.904,1071.02,326.148,1092.97,326.148 C1110.24,326.148,1123.56,331.266,1132.93,341.503 C1142.31,351.739,1146.99,366.231,1146.99,384.978 C1146.99,384.978,1146.99,529.278,1146.99,529.278 C1146.99,529.278,1088.53,529.278,1088.53,529.278 C1088.53,529.278,1088.53,401.258,1088.53,401.258 C1088.53,389.418,1087.18,381.154,1084.46,376.468 C1081.75,371.781,1076.82,369.438,1069.66,369.438 C1063.74,369.438,1058.01,371.473,1052.46,375.543 C1046.91,379.613,1041.17,385.594,1035.25,393.488 C1035.25,393.488,1035.25,529.278,1035.25,529.278 C1035.25,529.278,976.793,529.278,976.793,529.278 C976.793,529.278,976.793,254.738,976.793,254.738 C976.793,254.738,1035.25,248.818,1035.25,248.818 C1035.25,248.818,1035.25,352.418,1035.25,352.418 z M1283.52,229.948 C1293.64,229.948,1301.9,233.093,1308.31,239.383 C1314.73,245.673,1317.93,253.504,1317.93,262.878 C1317.93,272.498,1314.73,280.391,1308.31,286.558 C1301.9,292.724,1293.64,295.808,1283.52,295.808 C1273.41,295.808,1265.08,292.663,1258.55,286.373 C1252.01,280.083,1248.74,272.251,1248.74,262.878 C1248.74,253.504,1252.01,245.673,1258.55,239.383 C1265.08,233.093,1273.41,229.948,1283.52,229.948 z M1318.67,489.318 C1318.67,489.318,1368.99,489.318,1368.99,489.318 C1368.99,489.318,1368.99,529.278,1368.99,529.278 C1368.99,529.278,1204.71,529.278,1204.71,529.278 C1204.71,529.278,1204.71,489.318,1204.71,489.318 C1204.71,489.318,1260.21,489.318,1260.21,489.318 C1260.21,489.318,1260.21,372.768,1260.21,372.768 C1260.21,372.768,1206.56,372.768,1206.56,372.768 C1206.56,372.768,1206.56,332.808,1206.56,332.808 C1206.56,332.808,1318.67,332.808,1318.67,332.808 C1318.67,332.808,1318.67,489.318,1318.67,489.318 z M1471.48,448.248 C1475.18,478.094,1490.97,493.018,1518.84,493.018 C1535.62,493.018,1552.39,487.591,1569.16,476.738 C1569.16,476.738,1592.47,508.558,1592.47,508.558 C1582.85,516.944,1571.38,523.543,1558.06,528.353 C1544.74,533.163,1530.07,535.568,1514.03,535.568 C1492.08,535.568,1473.46,531.189,1458.16,522.433 C1442.87,513.676,1431.34,501.466,1423.57,485.803 C1415.8,470.139,1411.91,451.948,1411.91,431.228 C1411.91,411.494,1415.67,393.673,1423.2,377.763 C1430.72,361.853,1441.7,349.273,1456.13,340.023 C1470.56,330.773,1487.76,326.148,1507.74,326.148 C1526.49,326.148,1542.77,330.156,1556.58,338.173 C1570.4,346.189,1581.06,357.783,1588.59,372.953 C1596.11,388.123,1599.87,406.191,1599.87,427.158 C1599.87,435.298,1599.5,442.328,1598.76,448.248 C1598.76,448.248,1471.48,448.248,1471.48,448.248 z M1507.74,365.368 C1497.14,365.368,1488.63,369.253,1482.21,377.023 C1475.8,384.793,1471.98,396.694,1470.74,412.728 C1470.74,412.728,1542.89,412.728,1542.89,412.728 C1542.4,381.154,1530.68,365.368,1507.74,365.368 z M1767.85,248.448 C1793.01,248.448,1815.46,252.641,1835.19,261.028 C1835.19,261.028,1818.91,299.138,1818.91,299.138 C1806.33,294.204,1792.4,291.738,1777.1,291.738 C1765.51,291.738,1757.18,293.834,1752.13,298.028 C1747.07,302.221,1744.54,309.128,1744.54,318.748 C1744.54,318.748,1744.54,345.018,1744.54,345.018 C1744.54,345.018,1808.55,345.018,1808.55,345.018 C1808.55,345.018,1801.89,385.718,1801.89,385.718 C1801.89,385.718,1744.54,385.718,1744.54,385.718 C1744.54,385.718,1744.54,529.278,1744.54,529.278 C1744.54,529.278,1686.45,529.278,1686.45,529.278 C1686.45,529.278,1686.45,385.718,1686.45,385.718 C1686.45,385.718,1645.01,385.718,1645.01,385.718 C1645.01,385.718,1645.01,345.018,1645.01,345.018 C1645.01,345.018,1686.45,345.018,1686.45,345.018 C1686.45,345.018,1686.45,316.898,1686.45,316.898 C1686.45,296.671,1693.54,280.206,1707.73,267.503 C1721.91,254.799,1741.95,248.448,1767.85,248.448 z M2041.65,517.808 C2023.15,529.648,2001.69,535.568,1977.27,535.568 C1952.11,535.568,1933.18,529.154,1920.48,516.328 C1907.77,503.501,1901.42,485.494,1901.42,462.308 C1901.42,462.308,1901.42,373.138,1901.42,373.138 C1901.42,373.138,1860.35,373.138,1860.35,373.138 C1860.35,373.138,1860.35,332.808,1860.35,332.808 C1860.35,332.808,1901.42,332.808,1901.42,332.808 C1901.42,332.808,1901.42,290.258,1901.42,290.258 C1901.42,290.258,1959.88,283.228,1959.88,283.228 C1959.88,283.228,1959.88,332.808,1959.88,332.808 C1959.88,332.808,2023.15,332.808,2023.15,332.808 C2023.15,332.808,2017.23,373.138,2017.23,373.138 C2017.23,373.138,1959.88,373.138,1959.88,373.138 C1959.88,373.138,1959.88,462.308,1959.88,462.308 C1959.88,471.928,1962.1,478.834,1966.54,483.028 C1970.98,487.221,1978.14,489.318,1988,489.318 C2000.34,489.318,2011.81,486.358,2022.41,480.438 C2022.41,480.438,2041.65,517.808,2041.65,517.808 z M2252.18,472.668 C2252.18,479.821,2253.17,485.124,2255.14,488.578 C2257.12,492.031,2260.45,494.621,2265.13,496.348 C2265.13,496.348,2252.92,534.828,2252.92,534.828 C2241.08,533.594,2231.22,530.943,2223.32,526.873 C2215.43,522.803,2209.26,516.821,2204.82,508.928 C2197.42,517.561,2188.05,524.159,2176.7,528.723 C2165.36,533.286,2153.27,535.568,2140.44,535.568 C2120.22,535.568,2104.06,529.833,2091.97,518.363 C2079.89,506.893,2073.84,492.031,2073.84,473.778 C2073.84,452.564,2082.23,436.099,2099,424.383 C2115.78,412.666,2139.33,406.808,2169.67,406.808 C2169.67,406.808,2195.94,406.808,2195.94,406.808 C2195.94,406.808,2195.94,399.778,2195.94,399.778 C2195.94,379.551,2182.99,369.438,2157.09,369.438 C2150.43,369.438,2142.11,370.363,2132.12,372.213 C2122.13,374.063,2112.45,376.591,2103.07,379.798 C2103.07,379.798,2089.75,340.948,2089.75,340.948 C2102.33,336.261,2115.47,332.623,2129.16,330.033 C2142.85,327.443,2155.24,326.148,2166.34,326.148 C2223.57,326.148,2252.18,349.334,2252.18,395.708 C2252.18,395.708,2252.18,472.668,2252.18,472.668 z M2160.42,493.758 C2167.08,493.758,2173.8,491.846,2180.59,488.023 C2187.37,484.199,2192.49,478.958,2195.94,472.298 C2195.94,472.298,2195.94,440.108,2195.94,440.108 C2195.94,440.108,2181.51,440.108,2181.51,440.108 C2149.94,440.108,2134.15,449.974,2134.15,469.708 C2134.15,477.354,2136.43,483.274,2141,487.468 C2145.56,491.661,2152.04,493.758,2160.42,493.758 z M2308.79,332.808 C2308.79,332.808,2359.85,332.808,2359.85,332.808 C2359.85,332.808,2363.92,355.378,2363.92,355.378 C2372.8,345.511,2382.11,338.173,2391.86,333.363 C2401.6,328.553,2412.64,326.148,2424.97,326.148 C2441.99,326.148,2455.25,331.328,2464.75,341.688 C2474.24,352.048,2478.99,366.478,2478.99,384.978 C2478.99,384.978,2478.99,529.278,2478.99,529.278 C2478.99,529.278,2420.53,529.278,2420.53,529.278 C2420.53,529.278,2420.53,401.998,2420.53,401.998 C2420.53,389.664,2419.18,381.154,2416.46,376.468 C2413.75,371.781,2408.82,369.438,2401.66,369.438 C2395.74,369.438,2390.01,371.349,2384.46,375.173 C2378.91,378.996,2373.17,384.608,2367.25,392.008 C2367.25,392.008,2367.25,529.278,2367.25,529.278 C2367.25,529.278,2308.79,529.278,2308.79,529.278 C2308.79,529.278,2308.79,332.808,2308.79,332.808 z M2581.48,448.248 C2585.18,478.094,2600.97,493.018,2628.84,493.018 C2645.62,493.018,2662.39,487.591,2679.16,476.738 C2679.16,476.738,2702.47,508.558,2702.47,508.558 C2692.85,516.944,2681.38,523.543,2668.06,528.353 C2654.74,533.163,2640.07,535.568,2624.03,535.568 C2602.08,535.568,2583.46,531.189,2568.16,522.433 C2552.87,513.676,2541.34,501.466,2533.57,485.803 C2525.8,470.139,2521.91,451.948,2521.91,431.228 C2521.91,411.494,2525.67,393.673,2533.2,377.763 C2540.72,361.853,2551.7,349.273,2566.13,340.023 C2580.56,330.773,2597.76,326.148,2617.74,326.148 C2636.49,326.148,2652.77,330.156,2666.58,338.173 C2680.4,346.189,2691.06,357.783,2698.59,372.953 C2706.11,388.123,2709.87,406.191,2709.87,427.158 C2709.87,435.298,2709.5,442.328,2708.76,448.248 C2708.76,448.248,2581.48,448.248,2581.48,448.248 z M2617.74,365.368 C2607.14,365.368,2598.63,369.253,2592.21,377.023 C2585.8,384.793,2581.98,396.694,2580.74,412.728 C2580.74,412.728,2652.89,412.728,2652.89,412.728 C2652.4,381.154,2640.68,365.368,2617.74,365.368 z"/>
        </defs>
        <use xlink:href="#16" style="fill:#ac4efe;fill-opacity:1;fill-rule:nonzero;opacity:1;stroke:none;"/>
      </g>
    </defs>
    <use xlink:href="#15"/>
    <defs>
      <title>Text Copy</title>
      <g id="17">
        <defs>
          <path id="18" d="M836.133,477.318 C843.533,477.318,850.686,475.899,857.593,473.063 C864.499,470.226,871.899,466.094,879.793,460.668 C879.793,460.668,905.693,497.668,905.693,497.668 C896.319,505.561,885.466,511.851,873.133,516.538 C860.799,521.224,847.356,523.568,832.803,523.568 C811.836,523.568,793.768,519.251,778.598,510.618 C763.428,501.984,751.773,489.898,743.633,474.358 C735.493,458.818,731.423,440.811,731.423,420.338 C731.423,399.864,735.616,381.611,744.003,365.578 C752.389,349.544,764.291,336.964,779.708,327.838 C795.124,318.711,813.193,314.148,833.913,314.148 C848.466,314.148,861.539,316.183,873.133,320.253 C884.726,324.323,895.579,330.551,905.693,338.938 C905.693,338.938,880.533,374.088,880.533,374.088 C866.226,364.221,851.549,359.288,836.503,359.288 C807.149,359.288,792.473,379.638,792.473,420.338 C792.473,440.811,796.296,455.426,803.943,464.183 C811.589,472.939,822.319,477.318,836.133,477.318 z M1012.25,340.418 C1028.78,322.904,1048.02,314.148,1069.97,314.148 C1087.24,314.148,1100.56,319.266,1109.93,329.503 C1119.31,339.739,1123.99,354.231,1123.99,372.978 C1123.99,372.978,1123.99,517.278,1123.99,517.278 C1123.99,517.278,1065.53,517.278,1065.53,517.278 C1065.53,517.278,1065.53,389.258,1065.53,389.258 C1065.53,377.418,1064.18,369.154,1061.46,364.468 C1058.75,359.781,1053.82,357.438,1046.66,357.438 C1040.74,357.438,1035.01,359.473,1029.46,363.543 C1023.91,367.613,1018.17,373.594,1012.25,381.488 C1012.25,381.488,1012.25,517.278,1012.25,517.278 C1012.25,517.278,953.793,517.278,953.793,517.278 C953.793,517.278,953.793,242.738,953.793,242.738 C953.793,242.738,1012.25,236.818,1012.25,236.818 C1012.25,236.818,1012.25,340.418,1012.25,340.418 z M1260.52,217.948 C1270.64,217.948,1278.9,221.093,1285.31,227.383 C1291.73,233.673,1294.93,241.504,1294.93,250.878 C1294.93,260.498,1291.73,268.391,1285.31,274.558 C1278.9,280.724,1270.64,283.808,1260.52,283.808 C1250.41,283.808,1242.08,280.663,1235.55,274.373 C1229.01,268.083,1225.74,260.251,1225.74,250.878 C1225.74,241.504,1229.01,233.673,1235.55,227.383 C1242.08,221.093,1250.41,217.948,1260.52,217.948 z M1295.67,477.318 C1295.67,477.318,1345.99,477.318,1345.99,477.318 C1345.99,477.318,1345.99,517.278,1345.99,517.278 C1345.99,517.278,1181.71,517.278,1181.71,517.278 C1181.71,517.278,1181.71,477.318,1181.71,477.318 C1181.71,477.318,1237.21,477.318,1237.21,477.318 C1237.21,477.318,1237.21,360.768,1237.21,360.768 C1237.21,360.768,1183.56,360.768,1183.56,360.768 C1183.56,360.768,1183.56,320.808,1183.56,320.808 C1183.56,320.808,1295.67,320.808,1295.67,320.808 C1295.67,320.808,1295.67,477.318,1295.67,477.318 z M1448.48,436.248 C1452.18,466.094,1467.97,481.018,1495.84,481.018 C1512.62,481.018,1529.39,475.591,1546.16,464.738 C1546.16,464.738,1569.47,496.558,1569.47,496.558 C1559.85,504.944,1548.38,511.543,1535.06,516.353 C1521.74,521.163,1507.07,523.568,1491.03,523.568 C1469.08,523.568,1450.46,519.189,1435.16,510.433 C1419.87,501.676,1408.34,489.466,1400.57,473.803 C1392.8,458.139,1388.91,439.948,1388.91,419.228 C1388.91,399.494,1392.67,381.673,1400.2,365.763 C1407.72,349.853,1418.7,337.273,1433.13,328.023 C1447.56,318.773,1464.76,314.148,1484.74,314.148 C1503.49,314.148,1519.77,318.156,1533.58,326.173 C1547.4,334.189,1558.06,345.783,1565.59,360.953 C1573.11,376.123,1576.87,394.191,1576.87,415.158 C1576.87,423.298,1576.5,430.328,1575.76,436.248 C1575.76,436.248,1448.48,436.248,1448.48,436.248 z M1484.74,353.368 C1474.14,353.368,1465.63,357.253,1459.21,365.023 C1452.8,372.793,1448.98,384.694,1447.74,400.728 C1447.74,400.728,1519.89,400.728,1519.89,400.728 C1519.4,369.154,1507.68,353.368,1484.74,353.368 z M1744.85,236.448 C1770.01,236.448,1792.46,240.641,1812.19,249.028 C1812.19,249.028,1795.91,287.138,1795.91,287.138 C1783.33,282.204,1769.4,279.738,1754.1,279.738 C1742.51,279.738,1734.18,281.834,1729.13,286.028 C1724.07,290.221,1721.54,297.128,1721.54,306.748 C1721.54,306.748,1721.54,333.018,1721.54,333.018 C1721.54,333.018,1785.55,333.018,1785.55,333.018 C1785.55,333.018,1778.89,373.718,1778.89,373.718 C1778.89,373.718,1721.54,373.718,1721.54,373.718 C1721.54,373.718,1721.54,517.278,1721.54,517.278 C1721.54,517.278,1663.45,517.278,1663.45,517.278 C1663.45,517.278,1663.45,373.718,1663.45,373.718 C1663.45,373.718,1622.01,373.718,1622.01,373.718 C1622.01,373.718,1622.01,333.018,1622.01,333.018 C1622.01,333.018,1663.45,333.018,1663.45,333.018 C1663.45,333.018,1663.45,304.898,1663.45,304.898 C1663.45,284.671,1670.54,268.206,1684.73,255.503 C1698.91,242.799,1718.95,236.448,1744.85,236.448 z M2018.65,505.808 C2000.15,517.648,1978.69,523.568,1954.27,523.568 C1929.11,523.568,1910.18,517.154,1897.48,504.328 C1884.77,491.501,1878.42,473.494,1878.42,450.308 C1878.42,450.308,1878.42,361.138,1878.42,361.138 C1878.42,361.138,1837.35,361.138,1837.35,361.138 C1837.35,361.138,1837.35,320.808,1837.35,320.808 C1837.35,320.808,1878.42,320.808,1878.42,320.808 C1878.42,320.808,1878.42,278.258,1878.42,278.258 C1878.42,278.258,1936.88,271.228,1936.88,271.228 C1936.88,271.228,1936.88,320.808,1936.88,320.808 C1936.88,320.808,2000.15,320.808,2000.15,320.808 C2000.15,320.808,1994.23,361.138,1994.23,361.138 C1994.23,361.138,1936.88,361.138,1936.88,361.138 C1936.88,361.138,1936.88,450.308,1936.88,450.308 C1936.88,459.928,1939.1,466.834,1943.54,471.028 C1947.98,475.221,1955.14,477.318,1965,477.318 C1977.34,477.318,1988.81,474.358,1999.41,468.438 C1999.41,468.438,2018.65,505.808,2018.65,505.808 z M2229.18,460.668 C2229.18,467.821,2230.17,473.124,2232.14,476.578 C2234.12,480.031,2237.45,482.621,2242.13,484.348 C2242.13,484.348,2229.92,522.828,2229.92,522.828 C2218.08,521.594,2208.22,518.943,2200.32,514.873 C2192.43,510.803,2186.26,504.821,2181.82,496.928 C2174.42,505.561,2165.05,512.159,2153.7,516.723 C2142.36,521.286,2130.27,523.568,2117.44,523.568 C2097.22,523.568,2081.06,517.833,2068.97,506.363 C2056.89,494.893,2050.84,480.031,2050.84,461.778 C2050.84,440.564,2059.23,424.099,2076,412.383 C2092.78,400.666,2116.33,394.808,2146.67,394.808 C2146.67,394.808,2172.94,394.808,2172.94,394.808 C2172.94,394.808,2172.94,387.778,2172.94,387.778 C2172.94,367.551,2159.99,357.438,2134.09,357.438 C2127.43,357.438,2119.11,358.363,2109.12,360.213 C2099.13,362.063,2089.45,364.591,2080.07,367.798 C2080.07,367.798,2066.75,328.948,2066.75,328.948 C2079.33,324.261,2092.47,320.623,2106.16,318.033 C2119.85,315.443,2132.24,314.148,2143.34,314.148 C2200.57,314.148,2229.18,337.334,2229.18,383.708 C2229.18,383.708,2229.18,460.668,2229.18,460.668 z M2137.42,481.758 C2144.08,481.758,2150.8,479.846,2157.59,476.023 C2164.37,472.199,2169.49,466.958,2172.94,460.298 C2172.94,460.298,2172.94,428.108,2172.94,428.108 C2172.94,428.108,2158.51,428.108,2158.51,428.108 C2126.94,428.108,2111.15,437.974,2111.15,457.708 C2111.15,465.354,2113.43,471.274,2118,475.468 C2122.56,479.661,2129.04,481.758,2137.42,481.758 z M2285.79,320.808 C2285.79,320.808,2336.85,320.808,2336.85,320.808 C2336.85,320.808,2340.92,343.378,2340.92,343.378 C2349.8,333.511,2359.11,326.173,2368.86,321.363 C2378.6,316.553,2389.64,314.148,2401.97,314.148 C2418.99,314.148,2432.25,319.328,2441.75,329.688 C2451.24,340.048,2455.99,354.478,2455.99,372.978 C2455.99,372.978,2455.99,517.278,2455.99,517.278 C2455.99,517.278,2397.53,517.278,2397.53,517.278 C2397.53,517.278,2397.53,389.998,2397.53,389.998 C2397.53,377.664,2396.18,369.154,2393.46,364.468 C2390.75,359.781,2385.82,357.438,2378.66,357.438 C2372.74,357.438,2367.01,359.349,2361.46,363.173 C2355.91,366.996,2350.17,372.608,2344.25,380.008 C2344.25,380.008,2344.25,517.278,2344.25,517.278 C2344.25,517.278,2285.79,517.278,2285.79,517.278 C2285.79,517.278,2285.79,320.808,2285.79,320.808 z M2558.48,436.248 C2562.18,466.094,2577.97,481.018,2605.84,481.018 C2622.62,481.018,2639.39,475.591,2656.16,464.738 C2656.16,464.738,2679.47,496.558,2679.47,496.558 C2669.85,504.944,2658.38,511.543,2645.06,516.353 C2631.74,521.163,2617.07,523.568,2601.03,523.568 C2579.08,523.568,2560.46,519.189,2545.16,510.433 C2529.87,501.676,2518.34,489.466,2510.57,473.803 C2502.8,458.139,2498.91,439.948,2498.91,419.228 C2498.91,399.494,2502.67,381.673,2510.2,365.763 C2517.72,349.853,2528.7,337.273,2543.13,328.023 C2557.56,318.773,2574.76,314.148,2594.74,314.148 C2613.49,314.148,2629.77,318.156,2643.58,326.173 C2657.4,334.189,2668.06,345.783,2675.59,360.953 C2683.11,376.123,2686.87,394.191,2686.87,415.158 C2686.87,423.298,2686.5,430.328,2685.76,436.248 C2685.76,436.248,2558.48,436.248,2558.48,436.248 z M2594.74,353.368 C2584.14,353.368,2575.63,357.253,2569.21,365.023 C2562.8,372.793,2558.98,384.694,2557.74,400.728 C2557.74,400.728,2629.89,400.728,2629.89,400.728 C2629.4,369.154,2617.68,353.368,2594.74,353.368 z"/>
        </defs>
        <use xlink:href="#18" style="fill:#ac4efe;fill-opacity:1;fill-rule:nonzero;opacity:1;stroke:none;"/>
      </g>
    </defs>
    <use xlink:href="#17"/>
    <defs>
      <title>Text Copy</title>
      <g id="19">
        <defs>
          <path id="20" d="M844.975,481.318 C852.375,481.318,859.529,479.899,866.435,477.063 C873.342,474.226,880.742,470.094,888.635,464.668 C888.635,464.668,914.535,501.668,914.535,501.668 C905.162,509.561,894.309,515.851,881.975,520.538 C869.642,525.224,856.199,527.568,841.645,527.568 C820.679,527.568,802.61,523.251,787.44,514.618 C772.271,505.984,760.615,493.898,752.475,478.358 C744.336,462.818,740.266,444.811,740.266,424.338 C740.266,403.864,744.459,385.611,752.845,369.578 C761.232,353.544,773.134,340.964,788.55,331.838 C803.967,322.711,822.035,318.148,842.755,318.148 C857.309,318.148,870.382,320.183,881.975,324.253 C893.569,328.323,904.422,334.551,914.535,342.938 C914.535,342.938,889.375,378.088,889.375,378.088 C875.069,368.221,860.392,363.288,845.345,363.288 C815.992,363.288,801.315,383.638,801.315,424.338 C801.315,444.811,805.139,459.426,812.785,468.183 C820.432,476.939,831.162,481.318,844.975,481.318 z M1021.1,344.418 C1037.62,326.904,1056.86,318.148,1078.82,318.148 C1096.08,318.148,1109.4,323.266,1118.78,333.503 C1128.15,343.739,1132.84,358.231,1132.84,376.978 C1132.84,376.978,1132.84,521.278,1132.84,521.278 C1132.84,521.278,1074.38,521.278,1074.38,521.278 C1074.38,521.278,1074.38,393.258,1074.38,393.258 C1074.38,381.418,1073.02,373.154,1070.31,368.468 C1067.59,363.781,1062.66,361.438,1055.51,361.438 C1049.59,361.438,1043.85,363.473,1038.3,367.543 C1032.75,371.613,1027.02,377.594,1021.1,385.488 C1021.1,385.488,1021.1,521.278,1021.1,521.278 C1021.1,521.278,962.635,521.278,962.635,521.278 C962.635,521.278,962.635,246.738,962.635,246.738 C962.635,246.738,1021.1,240.818,1021.1,240.818 C1021.1,240.818,1021.1,344.418,1021.1,344.418 z M1269.37,221.948 C1279.48,221.948,1287.74,225.093,1294.16,231.383 C1300.57,237.673,1303.78,245.504,1303.78,254.878 C1303.78,264.498,1300.57,272.391,1294.16,278.558 C1287.74,284.724,1279.48,287.808,1269.37,287.808 C1259.25,287.808,1250.93,284.663,1244.39,278.373 C1237.85,272.083,1234.59,264.251,1234.59,254.878 C1234.59,245.504,1237.85,237.673,1244.39,231.383 C1250.93,225.093,1259.25,221.948,1269.37,221.948 z M1304.52,481.318 C1304.52,481.318,1354.84,481.318,1354.84,481.318 C1354.84,481.318,1354.84,521.278,1354.84,521.278 C1354.84,521.278,1190.56,521.278,1190.56,521.278 C1190.56,521.278,1190.56,481.318,1190.56,481.318 C1190.56,481.318,1246.06,481.318,1246.06,481.318 C1246.06,481.318,1246.06,364.768,1246.06,364.768 C1246.06,364.768,1192.41,364.768,1192.41,364.768 C1192.41,364.768,1192.41,324.808,1192.41,324.808 C1192.41,324.808,1304.52,324.808,1304.52,324.808 C1304.52,324.808,1304.52,481.318,1304.52,481.318 z M1457.33,440.248 C1461.03,470.094,1476.81,485.018,1504.69,485.018 C1521.46,485.018,1538.23,479.591,1555.01,468.738 C1555.01,468.738,1578.32,500.558,1578.32,500.558 C1568.7,508.944,1557.23,515.543,1543.91,520.353 C1530.59,525.163,1515.91,527.568,1499.88,527.568 C1477.92,527.568,1459.3,523.189,1444.01,514.433 C1428.71,505.676,1417.18,493.466,1409.41,477.803 C1401.64,462.139,1397.76,443.948,1397.76,423.228 C1397.76,403.494,1401.52,385.673,1409.04,369.763 C1416.56,353.853,1427.54,341.273,1441.97,332.023 C1456.4,322.773,1473.61,318.148,1493.59,318.148 C1512.33,318.148,1528.61,322.156,1542.43,330.173 C1556.24,338.189,1566.91,349.783,1574.43,364.953 C1581.95,380.123,1585.72,398.191,1585.72,419.158 C1585.72,427.298,1585.35,434.328,1584.61,440.248 C1584.61,440.248,1457.33,440.248,1457.33,440.248 z M1493.59,357.368 C1482.98,357.368,1474.47,361.253,1468.06,369.023 C1461.64,376.793,1457.82,388.694,1456.59,404.728 C1456.59,404.728,1528.74,404.728,1528.74,404.728 C1528.24,373.154,1516.53,357.368,1493.59,357.368 z M1753.7,240.448 C1778.86,240.448,1801.3,244.641,1821.04,253.028 C1821.04,253.028,1804.76,291.138,1804.76,291.138 C1792.18,286.204,1778.24,283.738,1762.95,283.738 C1751.35,283.738,1743.03,285.834,1737.97,290.028 C1732.91,294.221,1730.39,301.128,1730.39,310.748 C1730.39,310.748,1730.39,337.018,1730.39,337.018 C1730.39,337.018,1794.4,337.018,1794.4,337.018 C1794.4,337.018,1787.74,377.718,1787.74,377.718 C1787.74,377.718,1730.39,377.718,1730.39,377.718 C1730.39,377.718,1730.39,521.278,1730.39,521.278 C1730.39,521.278,1672.3,521.278,1672.3,521.278 C1672.3,521.278,1672.3,377.718,1672.3,377.718 C1672.3,377.718,1630.86,377.718,1630.86,377.718 C1630.86,377.718,1630.86,337.018,1630.86,337.018 C1630.86,337.018,1672.3,337.018,1672.3,337.018 C1672.3,337.018,1672.3,308.898,1672.3,308.898 C1672.3,288.671,1679.39,272.206,1693.57,259.503 C1707.75,246.799,1727.8,240.448,1753.7,240.448 z M2027.5,509.808 C2009,521.648,1987.54,527.568,1963.12,527.568 C1937.96,527.568,1919.02,521.154,1906.32,508.328 C1893.62,495.501,1887.27,477.494,1887.27,454.308 C1887.27,454.308,1887.27,365.138,1887.27,365.138 C1887.27,365.138,1846.2,365.138,1846.2,365.138 C1846.2,365.138,1846.2,324.808,1846.2,324.808 C1846.2,324.808,1887.27,324.808,1887.27,324.808 C1887.27,324.808,1887.27,282.258,1887.27,282.258 C1887.27,282.258,1945.73,275.228,1945.73,275.228 C1945.73,275.228,1945.73,324.808,1945.73,324.808 C1945.73,324.808,2009,324.808,2009,324.808 C2009,324.808,2003.08,365.138,2003.08,365.138 C2003.08,365.138,1945.73,365.138,1945.73,365.138 C1945.73,365.138,1945.73,454.308,1945.73,454.308 C1945.73,463.928,1947.95,470.834,1952.39,475.028 C1956.83,479.221,1963.98,481.318,1973.85,481.318 C1986.18,481.318,1997.65,478.358,2008.26,472.438 C2008.26,472.438,2027.5,509.808,2027.5,509.808 z M2238.03,464.668 C2238.03,471.821,2239.01,477.124,2240.99,480.578 C2242.96,484.031,2246.29,486.621,2250.98,488.348 C2250.98,488.348,2238.77,526.828,2238.77,526.828 C2226.93,525.594,2217.06,522.943,2209.17,518.873 C2201.27,514.803,2195.11,508.821,2190.67,500.928 C2183.27,509.561,2173.89,516.159,2162.55,520.723 C2151.2,525.286,2139.11,527.568,2126.29,527.568 C2106.06,527.568,2089.9,521.833,2077.82,510.363 C2065.73,498.893,2059.69,484.031,2059.69,465.778 C2059.69,444.564,2068.07,428.099,2084.85,416.383 C2101.62,404.666,2125.18,398.808,2155.52,398.808 C2155.52,398.808,2181.79,398.808,2181.79,398.808 C2181.79,398.808,2181.79,391.778,2181.79,391.778 C2181.79,371.551,2168.84,361.438,2142.94,361.438 C2136.28,361.438,2127.95,362.363,2117.96,364.213 C2107.97,366.063,2098.29,368.591,2088.92,371.798 C2088.92,371.798,2075.6,332.948,2075.6,332.948 C2088.18,328.261,2101.31,324.623,2115,322.033 C2128.69,319.443,2141.09,318.148,2152.19,318.148 C2209.41,318.148,2238.03,341.334,2238.03,387.708 C2238.03,387.708,2238.03,464.668,2238.03,464.668 z M2146.27,485.758 C2152.93,485.758,2159.65,483.846,2166.43,480.023 C2173.21,476.199,2178.33,470.958,2181.79,464.298 C2181.79,464.298,2181.79,432.108,2181.79,432.108 C2181.79,432.108,2167.36,432.108,2167.36,432.108 C2135.78,432.108,2120,441.974,2120,461.708 C2120,469.354,2122.28,475.274,2126.84,479.468 C2131.4,483.661,2137.88,485.758,2146.27,485.758 z M2294.64,324.808 C2294.64,324.808,2345.7,324.808,2345.7,324.808 C2345.7,324.808,2349.77,347.378,2349.77,347.378 C2358.65,337.511,2367.96,330.173,2377.7,325.363 C2387.44,320.553,2398.48,318.148,2410.82,318.148 C2427.84,318.148,2441.09,323.328,2450.59,333.688 C2460.09,344.048,2464.84,358.478,2464.84,376.978 C2464.84,376.978,2464.84,521.278,2464.84,521.278 C2464.84,521.278,2406.38,521.278,2406.38,521.278 C2406.38,521.278,2406.38,393.998,2406.38,393.998 C2406.38,381.664,2405.02,373.154,2402.31,368.468 C2399.59,363.781,2394.66,361.438,2387.51,361.438 C2381.59,361.438,2375.85,363.349,2370.3,367.173 C2364.75,370.996,2359.02,376.608,2353.1,384.008 C2353.1,384.008,2353.1,521.278,2353.1,521.278 C2353.1,521.278,2294.64,521.278,2294.64,521.278 C2294.64,521.278,2294.64,324.808,2294.64,324.808 z M2567.33,440.248 C2571.03,470.094,2586.81,485.018,2614.69,485.018 C2631.46,485.018,2648.23,479.591,2665.01,468.738 C2665.01,468.738,2688.32,500.558,2688.32,500.558 C2678.7,508.944,2667.23,515.543,2653.91,520.353 C2640.59,525.163,2625.91,527.568,2609.88,527.568 C2587.92,527.568,2569.3,523.189,2554.01,514.433 C2538.71,505.676,2527.18,493.466,2519.41,477.803 C2511.64,462.139,2507.76,443.948,2507.76,423.228 C2507.76,403.494,2511.52,385.673,2519.04,369.763 C2526.56,353.853,2537.54,341.273,2551.97,332.023 C2566.4,322.773,2583.61,318.148,2603.59,318.148 C2622.33,318.148,2638.61,322.156,2652.43,330.173 C2666.24,338.189,2676.91,349.783,2684.43,364.953 C2691.95,380.123,2695.72,398.191,2695.72,419.158 C2695.72,427.298,2695.35,434.328,2694.61,440.248 C2694.61,440.248,2567.33,440.248,2567.33,440.248 z M2603.59,357.368 C2592.98,357.368,2584.47,361.253,2578.06,369.023 C2571.64,376.793,2567.82,388.694,2566.59,404.728 C2566.59,404.728,2638.74,404.728,2638.74,404.728 C2638.24,373.154,2626.53,357.368,2603.59,357.368 z"/>
        </defs>
        <use xlink:href="#20" style="fill:#36d8ff;fill-opacity:1;fill-rule:nonzero;opacity:1;stroke:none;"/>
      </g>
    </defs>
    <use xlink:href="#19"/>
  </g>
  <g id="21">
    <title>Layer 4</title>
    <defs>
      <title>Path</title>
      <g id="22">
        <defs>
          <path id="23" d="M266.277,517.75 C262.608,495.74,262.148,473.376,263.275,451.146 C264.652,424.112,268.765,397.366,275.16,371.238 C281.562,345.106,290.237,319.59,300.857,294.879 C300.856,294.882,300.854,294.886,300.853,294.889 C314.427,263.551,330.493,233.162,352.634,207.126 C360.07,198.389,368.1,190.193,377.437,183.731 C376.381,182.033,375.325,180.334,374.27,178.635 C363.686,184.556,354.363,192.444,345.843,200.779 C320.402,225.654,300.975,256.211,285.801,288.039 C285.8,288.042,285.798,288.045,285.797,288.049 C273.738,313.345,264.804,340.17,259.1,367.61 C253.39,395.054,250.902,423.111,251.62,451.006 C252.206,473.858,254.691,496.83,260.408,518.996 C262.364,518.581,264.321,518.165,266.277,517.75 z"/>
        </defs>
        <use xlink:href="#23" style="fill:#ab4ffe;fill-opacity:1;fill-rule:nonzero;opacity:1;stroke:none;"/>
      </g>
    </defs>
    <use xlink:href="#22"/>
  </g>
  <g id="24">
    <title>Layer 3</title>
    <defs>
      <title>Shape 14825</title>
      <g id="25">
        <defs>
          <path id="26" d="M404.636,672.417 C404.636,672.417,368.985,708.068,368.985,708.068 C368.985,708.068,300.398,639.481,300.398,639.481 C300.398,639.481,336.049,603.83,336.049,603.83 C336.049,603.83,300.398,568.179,300.398,568.179 C300.398,568.179,368.985,499.592,368.985,499.592 C368.985,499.592,404.636,535.243,404.636,535.243 C404.636,535.243,440.287,499.592,440.287,499.592 C440.287,499.592,508.874,568.179,508.874,568.179 C508.874,568.179,473.223,603.83,473.223,603.83 C473.223,603.83,508.874,639.481,508.874,639.481 C508.874,639.481,440.287,708.068,440.287,708.068 C440.287,708.068,404.636,672.417,404.636,672.417 z"/>
        </defs>
        <use xlink:href="#26" style="fill:#35d8ff;fill-opacity:1;fill-rule:evenodd;opacity:1;stroke:none;"/>
        <use xlink:href="#26" style="fill:none;opacity:1;stroke:#ac4eff;stroke-linecap:butt;stroke-linejoin:miter;stroke-miterlimit:10;stroke-opacity:1;stroke-width:17;"/>
      </g>
    </defs>
    <use xlink:href="#25"/>
  </g>
</svg>
