<?xml version="1.0" encoding="utf-8"?>
<svg x="0pt" y="0pt" width="2091.17pt" height="800pt" viewBox="0 0 2091.17 800" xmlns="http://www.w3.org/2000/svg" xmlns:xlink="http://www.w3.org/1999/xlink">
  <g id="1">
    <title>Layer 2</title>
    <defs>
      <title>Smart Rectangle</title>
      <g id="2">
        <defs>
          <path id="3" d="M790.158,611.453 C790.158,715.584,705.743,800,601.611,800 C601.611,800,188.547,800,188.547,800 C84.4156,800,3.05176e-05,715.584,1.52588e-05,611.453 C1.52588e-05,611.453,0,188.547,0,188.547 C1.52588e-05,84.4155,84.4155,0,188.547,0 C188.547,0,601.611,1.52588e-05,601.611,1.52588e-05 C705.743,3.05176e-05,790.158,84.4156,790.158,188.547 C790.158,188.547,790.158,611.453,790.158,611.453 z"/>
        </defs>
        <use xlink:href="#3" style="fill:#000204;fill-opacity:1;fill-rule:nonzero;opacity:1;stroke:none;"/>
      </g>
    </defs>
    <use xlink:href="#2"/>
    <g id="4">
      <title>Layer 5</title>
    </g>
    <defs>
      <title>Path Copy Copy Copy</title>
      <g id="5">
        <defs>
          <path id="6" d="M590.146,334.869 C590.146,334.869,608.011,334.869,608.011,334.869 C608.011,334.869,611.823,310.462,611.823,310.462 C611.823,310.462,604.406,280.79,596.773,269.906 C588.662,258.34,542.884,224.246,542.884,224.246 C542.884,224.246,528.013,191.802,510.455,177.645 C498.863,168.298,441.716,149.041,441.716,149.041 C441.716,149.041,447.618,117.685,447.618,117.685 C447.618,117.685,440.665,117.685,440.665,117.685 C440.665,117.685,412.551,124.762,404.636,132.076 C396.959,139.17,376.518,162.662,376.518,162.662 C376.518,162.662,373.389,152.616,364.352,150.84 C356.901,149.376,332.765,155.769,329.131,165.027 C327.86,168.266,334.43,181.597,334.43,181.597 C334.43,181.597,329.131,185.586,329.131,185.586 C329.131,185.586,322.337,174.981,318.664,174.6 C310.461,173.748,285.752,188.165,284.69,197.972 C284.238,202.148,296.559,215.298,296.559,215.298 C296.559,215.298,293.554,219.327,293.554,219.327 C293.554,219.327,278.686,208.071,274.012,209.275 C266.365,211.246,249.779,231.958,252.003,242.057 C253.048,246.804,270.575,257.734,270.575,257.734 C270.575,257.734,267.642,261.425,267.642,261.425 C267.642,261.425,248.778,251.304,243.752,253.628 C236.646,256.913,224.786,280.07,228.902,289.846 C230.726,294.177,249.02,301.981,249.02,301.981 C249.02,301.981,246.9,306.96,246.9,306.96 C246.9,306.96,227.532,299.447,222.987,302.303 C216.386,306.452,207.944,330.933,213.107,340.013 C215.569,344.344,235.653,350.61,235.653,350.61 C235.653,350.61,212.376,347.603,208.768,350.61 C202.841,355.549,195.779,379.29,201.811,388.554 C204.786,393.123,227.075,398.799,227.075,398.799 C227.075,398.799,205.186,399.729,201.811,403.313 C196.676,408.766,190.738,431.852,197.448,440.505 C200.738,444.748,223.279,447.82,223.279,447.82 C223.279,447.82,200.483,450.02,197.448,453.845 C192.521,460.053,189.504,485.409,197.448,493.473 C201.034,497.112,222.663,497.577,222.663,497.577 C222.663,497.577,200.252,500.817,197.448,504.493 C192.756,510.646,190.984,534.048,197.448,543.18 C212.562,564.533,313.34,603.83,313.34,603.83 C313.34,603.83,475.828,603.83,475.828,603.83 C475.828,603.83,568.31,566.765,568.31,566.765 C568.31,566.765,567.715,529.952,557.806,504.11 C552.078,489.173,529.758,459.984,509.535,440.505 C496.734,428.176,463.426,408.164,444.674,380.314 C438.394,370.989,424.74,327.754,424.74,327.754 C424.74,327.754,455.817,337.484,467.426,338.346 C475.356,338.935,507.006,334.578,507.006,334.578 C507.006,334.578,538.467,359.529,554.525,364.903 C557.991,366.062,572.742,366.323,572.742,366.323 C572.742,366.323,592.527,349.778,592.527,349.778 C592.527,349.778,590.146,334.869,590.146,334.869 z"/>
        </defs>
        <use xlink:href="#6" style="fill:#37d7ff;fill-opacity:1;fill-rule:nonzero;opacity:1;stroke:none;"/>
      </g>
    </defs>
    <use xlink:href="#5"/>
    <defs>
      <title>Text Copy</title>
      <g id="7">
        <defs>
          <path id="8" d="M980.075,494.492 C980.075,494.492,932.675,494.492,932.675,494.492 C932.675,494.492,932.675,271.892,932.675,271.892 C932.675,271.892,980.075,266.792,980.075,266.792 C980.075,266.792,980.075,494.492,980.075,494.492 z M1031.38,405.692 C1031.38,405.692,1088.07,494.492,1088.07,494.492 C1088.07,494.492,1034.07,494.492,1034.07,494.492 C1034.07,494.492,981.875,407.192,981.875,407.192 C981.875,407.192,1034.38,335.192,1034.38,335.192 C1034.38,335.192,1083.88,335.192,1083.88,335.192 C1083.88,335.192,1031.38,405.692,1031.38,405.692 z M1181.68,329.792 C1205.88,329.792,1224.82,337.442,1238.53,352.742 C1252.22,368.042,1259.07,388.592,1259.07,414.392 C1259.07,441.192,1252.28,462.092,1238.68,477.092 C1225.08,492.092,1206.08,499.592,1181.68,499.592 C1157.28,499.592,1138.28,492.142,1124.68,477.242 C1111.08,462.342,1104.28,441.492,1104.28,414.692 C1104.28,397.692,1107.33,382.842,1113.43,370.142 C1119.53,357.442,1128.42,347.542,1140.12,340.442 C1151.83,333.342,1165.68,329.792,1181.68,329.792 z M1181.68,364.892 C1171.88,364.892,1164.67,368.842,1160.07,376.742 C1155.47,384.642,1153.18,397.292,1153.18,414.692 C1153.18,432.292,1155.47,445.042,1160.07,452.942 C1164.67,460.842,1171.88,464.792,1181.68,464.792 C1191.47,464.792,1198.68,460.792,1203.28,452.792 C1207.88,444.792,1210.18,431.992,1210.18,414.392 C1210.18,397.192,1207.88,384.642,1203.28,376.742 C1198.68,368.842,1191.47,364.892,1181.68,364.892 z M1414.18,330.392 C1423.78,330.392,1432.57,331.992,1440.57,335.192 C1440.57,335.192,1431.88,401.792,1431.88,401.792 C1431.88,401.792,1401.88,401.792,1401.88,401.792 C1401.88,401.792,1401.88,372.392,1401.88,372.392 C1393.08,373.992,1385.28,378.792,1378.47,386.792 C1371.68,394.792,1366.38,404.892,1362.57,417.092 C1362.57,417.092,1362.57,462.692,1362.57,462.692 C1362.57,462.692,1394.07,462.692,1394.07,462.692 C1394.07,462.692,1394.07,494.492,1394.07,494.492 C1394.07,494.492,1294.18,494.492,1294.18,494.492 C1294.18,494.492,1294.18,462.692,1294.18,462.692 C1294.18,462.692,1315.18,462.692,1315.18,462.692 C1315.18,462.692,1315.18,366.692,1315.18,366.692 C1315.18,366.692,1294.18,366.692,1294.18,366.692 C1294.18,366.692,1294.18,335.192,1294.18,335.192 C1294.18,335.192,1351.47,335.192,1351.47,335.192 C1351.47,335.192,1359.88,370.892,1359.88,370.892 C1365.67,357.292,1372.97,347.142,1381.78,340.442 C1390.57,333.742,1401.38,330.392,1414.18,330.392 z M1472.68,335.192 C1472.68,335.192,1514.07,335.192,1514.07,335.192 C1514.07,335.192,1517.38,353.492,1517.38,353.492 C1524.58,345.492,1532.12,339.542,1540.03,335.642 C1547.93,331.742,1556.88,329.792,1566.88,329.792 C1580.67,329.792,1591.42,333.992,1599.12,342.392 C1606.83,350.792,1610.68,362.492,1610.68,377.492 C1610.68,377.492,1610.68,494.492,1610.68,494.492 C1610.68,494.492,1563.28,494.492,1563.28,494.492 C1563.28,494.492,1563.28,391.292,1563.28,391.292 C1563.28,381.292,1562.18,374.392,1559.97,370.592 C1557.78,366.792,1553.78,364.892,1547.97,364.892 C1543.18,364.892,1538.53,366.442,1534.03,369.542 C1529.53,372.642,1524.88,377.192,1520.07,383.192 C1520.07,383.192,1520.07,494.492,1520.07,494.492 C1520.07,494.492,1472.68,494.492,1472.68,494.492 C1472.68,494.492,1472.68,335.192,1472.68,335.192 z M1693.78,428.792 C1696.78,452.992,1709.58,465.092,1732.18,465.092 C1745.78,465.092,1759.38,460.692,1772.97,451.892 C1772.97,451.892,1791.88,477.692,1791.88,477.692 C1784.08,484.492,1774.78,489.842,1763.97,493.742 C1753.18,497.642,1741.28,499.592,1728.28,499.592 C1710.47,499.592,1695.38,496.042,1682.97,488.942 C1670.57,481.842,1661.22,471.942,1654.93,459.242 C1648.62,446.542,1645.47,431.792,1645.47,414.992 C1645.47,398.992,1648.53,384.542,1654.62,371.642 C1660.72,358.742,1669.62,348.542,1681.32,341.042 C1693.03,333.542,1706.97,329.792,1723.18,329.792 C1738.38,329.792,1751.57,333.042,1762.78,339.542 C1773.97,346.042,1782.62,355.442,1788.72,367.742 C1794.82,380.042,1797.88,394.692,1797.88,411.692 C1797.88,418.292,1797.57,423.992,1796.97,428.792 C1796.97,428.792,1693.78,428.792,1693.78,428.792 z M1723.18,361.592 C1714.58,361.592,1707.68,364.742,1702.47,371.042 C1697.28,377.342,1694.18,386.992,1693.18,399.992 C1693.18,399.992,1751.68,399.992,1751.68,399.992 C1751.28,374.392,1741.78,361.592,1723.18,361.592 z M1976.07,485.192 C1961.07,494.792,1943.67,499.592,1923.88,499.592 C1903.47,499.592,1888.12,494.392,1877.82,483.992 C1867.53,473.592,1862.38,458.992,1862.38,440.192 C1862.38,440.192,1862.38,367.892,1862.38,367.892 C1862.38,367.892,1829.07,367.892,1829.07,367.892 C1829.07,367.892,1829.07,335.192,1829.07,335.192 C1829.07,335.192,1862.38,335.192,1862.38,335.192 C1862.38,335.192,1862.38,300.692,1862.38,300.692 C1862.38,300.692,1909.78,294.992,1909.78,294.992 C1909.78,294.992,1909.78,335.192,1909.78,335.192 C1909.78,335.192,1961.07,335.192,1961.07,335.192 C1961.07,335.192,1956.28,367.892,1956.28,367.892 C1956.28,367.892,1909.78,367.892,1909.78,367.892 C1909.78,367.892,1909.78,440.192,1909.78,440.192 C1909.78,447.992,1911.58,453.592,1915.18,456.992 C1918.78,460.392,1924.57,462.092,1932.57,462.092 C1942.57,462.092,1951.88,459.692,1960.47,454.892 C1960.47,454.892,1976.07,485.192,1976.07,485.192 z"/>
        </defs>
        <use xlink:href="#8" style="fill:#000304;fill-opacity:1;fill-rule:nonzero;opacity:1;stroke:none;"/>
      </g>
    </defs>
    <use xlink:href="#7"/>
  </g>
  <g id="9">
    <title>Layer 4</title>
    <defs>
      <title>Path</title>
      <g id="10">
        <defs>
          <path id="11" d="M266.277,517.75 C262.608,495.74,262.148,473.376,263.275,451.146 C264.652,424.112,268.765,397.366,275.16,371.238 C281.562,345.106,290.237,319.59,300.857,294.879 C300.856,294.882,300.854,294.886,300.853,294.889 C314.427,263.551,330.493,233.162,352.634,207.126 C360.07,198.389,368.1,190.193,377.437,183.731 C376.381,182.033,375.325,180.334,374.27,178.635 C363.686,184.556,354.363,192.444,345.843,200.779 C320.402,225.654,300.975,256.211,285.801,288.039 C285.8,288.042,285.798,288.045,285.797,288.049 C273.738,313.345,264.804,340.17,259.1,367.61 C253.39,395.054,250.902,423.111,251.62,451.006 C252.206,473.858,254.691,496.83,260.408,518.996 C262.364,518.581,264.321,518.165,266.277,517.75 z"/>
        </defs>
        <use xlink:href="#11" style="fill:#000205;fill-opacity:1;fill-rule:nonzero;opacity:1;stroke:none;"/>
      </g>
    </defs>
    <use xlink:href="#10"/>
  </g>
  <g id="12">
    <title>Layer 3</title>
    <defs>
      <title>Shape 14825</title>
      <g id="13">
        <defs>
          <path id="14" d="M404.636,672.417 C404.636,672.417,368.985,708.068,368.985,708.068 C368.985,708.068,300.398,639.481,300.398,639.481 C300.398,639.481,336.049,603.83,336.049,603.83 C336.049,603.83,300.398,568.179,300.398,568.179 C300.398,568.179,368.985,499.592,368.985,499.592 C368.985,499.592,404.636,535.243,404.636,535.243 C404.636,535.243,440.287,499.592,440.287,499.592 C440.287,499.592,508.874,568.179,508.874,568.179 C508.874,568.179,473.223,603.83,473.223,603.83 C473.223,603.83,508.874,639.481,508.874,639.481 C508.874,639.481,440.287,708.068,440.287,708.068 C440.287,708.068,404.636,672.417,404.636,672.417 z"/>
        </defs>
        <use xlink:href="#14" style="fill:#35d8ff;fill-opacity:1;fill-rule:evenodd;opacity:1;stroke:none;"/>
        <use xlink:href="#14" style="fill:none;opacity:1;stroke:#000205;stroke-linecap:butt;stroke-linejoin:miter;stroke-miterlimit:10;stroke-opacity:1;stroke-width:17;"/>
      </g>
    </defs>
    <use xlink:href="#13"/>
  </g>
</svg>
