<?xml version="1.0" encoding="utf-8"?>
<svg x="0pt" y="0pt" width="800pt" height="800pt" viewBox="0 0 800 800" xmlns="http://www.w3.org/2000/svg" xmlns:xlink="http://www.w3.org/1999/xlink">
  <g id="1">
    <title>Layer 2</title>
    <g id="2">
      <title>Layer 5</title>
    </g>
  </g>
  <g id="3">
    <title>Layer 4</title>
  </g>
  <g id="4">
    <title>Layer 3</title>
    <defs>
      <title>Path</title>
      <g id="5">
        <defs>
          <path id="6" d="M400,2.14435 C620.914,2.14435,800,181.23,800,402.144 C800,623.058,620.914,802.144,400,802.144 C179.086,802.144,-8.78181e-05,623.058,-8.78181e-05,402.144 C-8.78181e-05,181.23,179.086,2.14435,400,2.14435 z"/>
        </defs>
        <use xlink:href="#6" style="fill:#000204;fill-opacity:1;fill-rule:evenodd;opacity:1;stroke:none;"/>
      </g>
    </defs>
    <use xlink:href="#5"/>
    <defs>
      <title>Path Copy</title>
      <g id="7">
        <defs>
          <path id="8" d="M597.023,351.013 C597.023,351.013,614.889,351.013,614.889,351.013 C614.889,351.013,618.701,326.606,618.701,326.606 C618.701,326.606,611.284,296.935,603.65,286.05 C595.539,274.484,549.761,240.391,549.761,240.391 C549.761,240.391,534.891,207.947,517.332,193.789 C505.74,184.442,448.593,165.186,448.593,165.186 C448.593,165.186,454.495,133.829,454.495,133.829 C454.495,133.829,447.543,133.829,447.543,133.829 C447.543,133.829,419.428,140.906,411.513,148.22 C403.836,155.314,383.396,178.807,383.396,178.807 C383.396,178.807,380.266,168.761,371.23,166.985 C363.778,165.52,339.642,171.913,336.009,181.171 C334.738,184.41,341.308,197.741,341.308,197.741 C341.308,197.741,336.009,201.73,336.009,201.73 C336.009,201.73,329.214,191.126,325.542,190.744 C317.338,189.892,292.629,204.309,291.568,214.117 C291.116,218.292,303.436,231.442,303.436,231.442 C303.436,231.442,300.431,235.471,300.431,235.471 C300.431,235.471,285.563,224.215,280.889,225.419 C273.242,227.39,256.656,248.102,258.88,258.202 C259.926,262.949,277.452,273.879,277.452,273.879 C277.452,273.879,274.52,277.57,274.52,277.57 C274.52,277.57,255.655,267.448,250.629,269.772 C243.523,273.058,231.663,296.214,235.779,305.99 C237.603,310.321,255.898,318.125,255.898,318.125 C255.898,318.125,253.778,323.104,253.778,323.104 C253.778,323.104,234.409,315.591,229.865,318.447 C223.264,322.596,214.821,347.077,219.984,356.157 C222.447,360.488,242.531,366.755,242.531,366.755 C242.531,366.755,219.254,363.747,215.645,366.755 C209.718,371.694,202.656,395.435,208.688,404.698 C211.663,409.268,233.952,414.943,233.952,414.943 C233.952,414.943,212.063,415.873,208.688,419.458 C203.554,424.91,197.616,447.996,204.326,456.649 C207.616,460.893,230.156,463.964,230.156,463.964 C230.156,463.964,207.361,466.164,204.326,469.989 C199.399,476.197,196.382,501.553,204.326,509.617 C207.911,513.257,229.541,513.721,229.541,513.721 C229.541,513.721,207.129,516.961,204.326,520.638 C199.633,526.79,197.861,550.192,204.326,559.325 C219.439,580.677,320.217,619.974,320.217,619.974 C320.217,619.974,482.706,619.974,482.706,619.974 C482.706,619.974,575.187,582.909,575.187,582.909 C575.187,582.909,574.592,546.096,564.683,520.254 C558.956,505.318,536.636,476.128,516.412,456.649 C503.611,444.32,470.304,424.308,451.551,396.459 C445.271,387.133,431.617,343.898,431.617,343.898 C431.617,343.898,462.694,353.628,474.303,354.491 C482.233,355.08,513.884,350.723,513.884,350.723 C513.884,350.723,545.345,375.674,561.402,381.047 C564.868,382.207,579.619,382.467,579.619,382.467 C579.619,382.467,599.404,365.923,599.404,365.923 C599.404,365.923,597.023,351.013,597.023,351.013 z"/>
        </defs>
        <use xlink:href="#8" style="fill:#ac4efe;fill-opacity:1;fill-rule:nonzero;opacity:1;stroke:none;"/>
      </g>
    </defs>
    <use xlink:href="#7"/>
    <defs>
      <title>Path Copy Copy</title>
      <g id="9">
        <defs>
          <path id="10" d="M578.384,334.013 C578.384,334.013,596.25,334.013,596.25,334.013 C596.25,334.013,600.062,309.606,600.062,309.606 C600.062,309.606,592.645,279.935,585.011,269.05 C576.9,257.484,531.123,223.391,531.123,223.391 C531.123,223.391,516.252,190.947,498.693,176.789 C487.101,167.442,429.954,148.186,429.954,148.186 C429.954,148.186,435.856,116.829,435.856,116.829 C435.856,116.829,428.904,116.829,428.904,116.829 C428.904,116.829,400.789,123.906,392.874,131.22 C385.197,138.314,364.757,161.807,364.757,161.807 C364.757,161.807,361.627,151.761,352.591,149.985 C345.139,148.52,321.004,154.913,317.37,164.171 C316.099,167.41,322.669,180.741,322.669,180.741 C322.669,180.741,317.37,184.73,317.37,184.73 C317.37,184.73,310.575,174.126,306.903,173.744 C298.7,172.892,273.991,187.309,272.929,197.117 C272.477,201.292,284.798,214.442,284.798,214.442 C284.798,214.442,281.792,218.471,281.792,218.471 C281.792,218.471,266.924,207.215,262.25,208.419 C254.603,210.39,238.017,231.102,240.241,241.202 C241.287,245.949,258.814,256.879,258.814,256.879 C258.814,256.879,255.881,260.57,255.881,260.57 C255.881,260.57,237.016,250.448,231.991,252.772 C224.885,256.058,213.024,279.214,217.14,288.99 C218.964,293.321,237.259,301.125,237.259,301.125 C237.259,301.125,235.139,306.104,235.139,306.104 C235.139,306.104,215.771,298.591,211.226,301.447 C204.625,305.596,196.183,330.077,201.345,339.157 C203.808,343.488,223.892,349.755,223.892,349.755 C223.892,349.755,200.615,346.747,197.006,349.755 C191.079,354.694,184.017,378.435,190.049,387.698 C193.024,392.268,215.313,397.943,215.313,397.943 C215.313,397.943,193.425,398.873,190.049,402.458 C184.915,407.91,178.977,430.996,185.687,439.649 C188.977,443.893,211.517,446.964,211.517,446.964 C211.517,446.964,188.722,449.164,185.687,452.989 C180.76,459.197,177.743,484.553,185.687,492.617 C189.272,496.257,210.902,496.721,210.902,496.721 C210.902,496.721,188.49,499.961,185.687,503.638 C180.995,509.79,179.223,533.192,185.687,542.325 C200.8,563.677,301.578,602.974,301.578,602.974 C301.578,602.974,464.067,602.974,464.067,602.974 C464.067,602.974,556.549,565.909,556.549,565.909 C556.549,565.909,555.953,529.096,546.044,503.254 C540.317,488.318,517.997,459.128,497.773,439.649 C484.973,427.32,451.665,407.308,432.912,379.459 C426.633,370.133,412.978,326.898,412.978,326.898 C412.978,326.898,444.055,336.628,455.665,337.491 C463.594,338.08,495.245,333.723,495.245,333.723 C495.245,333.723,526.706,358.674,542.764,364.047 C546.229,365.207,560.98,365.467,560.98,365.467 C560.98,365.467,580.765,348.923,580.765,348.923 C580.765,348.923,578.384,334.013,578.384,334.013 z"/>
        </defs>
        <use xlink:href="#10" style="fill:#ac4efe;fill-opacity:1;fill-rule:nonzero;opacity:1;stroke:none;"/>
      </g>
    </defs>
    <use xlink:href="#9"/>
    <defs>
      <title>Path Copy Copy Copy</title>
      <g id="11">
        <defs>
          <path id="12" d="M591.023,337.013 C591.023,337.013,608.889,337.013,608.889,337.013 C608.889,337.013,612.701,312.606,612.701,312.606 C612.701,312.606,605.284,282.935,597.65,272.05 C589.539,260.484,543.761,226.391,543.761,226.391 C543.761,226.391,528.891,193.947,511.332,179.789 C499.74,170.442,442.593,151.186,442.593,151.186 C442.593,151.186,448.495,119.829,448.495,119.829 C448.495,119.829,441.543,119.829,441.543,119.829 C441.543,119.829,413.428,126.906,405.513,134.22 C397.836,141.314,377.396,164.807,377.396,164.807 C377.396,164.807,374.266,154.761,365.23,152.985 C357.778,151.52,333.642,157.913,330.009,167.171 C328.738,170.41,335.308,183.741,335.308,183.741 C335.308,183.741,330.009,187.73,330.009,187.73 C330.009,187.73,323.214,177.126,319.542,176.744 C311.338,175.892,286.629,190.309,285.568,200.117 C285.116,204.292,297.436,217.442,297.436,217.442 C297.436,217.442,294.431,221.471,294.431,221.471 C294.431,221.471,279.563,210.215,274.889,211.419 C267.242,213.39,250.656,234.102,252.88,244.202 C253.926,248.949,271.452,259.879,271.452,259.879 C271.452,259.879,268.52,263.57,268.52,263.57 C268.52,263.57,249.655,253.448,244.629,255.772 C237.523,259.058,225.663,282.214,229.779,291.99 C231.603,296.321,249.898,304.125,249.898,304.125 C249.898,304.125,247.778,309.104,247.778,309.104 C247.778,309.104,228.409,301.591,223.865,304.447 C217.264,308.596,208.821,333.077,213.984,342.157 C216.447,346.488,236.531,352.755,236.531,352.755 C236.531,352.755,213.254,349.747,209.645,352.755 C203.718,357.694,196.656,381.435,202.688,390.698 C205.663,395.268,227.952,400.943,227.952,400.943 C227.952,400.943,206.063,401.873,202.688,405.458 C197.554,410.91,191.616,433.996,198.326,442.649 C201.616,446.893,224.156,449.964,224.156,449.964 C224.156,449.964,201.361,452.164,198.326,455.989 C193.399,462.197,190.382,487.553,198.326,495.617 C201.911,499.257,223.541,499.721,223.541,499.721 C223.541,499.721,201.129,502.961,198.326,506.638 C193.633,512.79,191.861,536.192,198.326,545.325 C213.439,566.677,314.217,605.974,314.217,605.974 C314.217,605.974,476.706,605.974,476.706,605.974 C476.706,605.974,569.187,568.909,569.187,568.909 C569.187,568.909,568.592,532.096,558.683,506.254 C552.956,491.318,530.636,462.128,510.412,442.649 C497.611,430.32,464.304,410.308,445.551,382.459 C439.271,373.133,425.617,329.898,425.617,329.898 C425.617,329.898,456.694,339.628,468.303,340.491 C476.233,341.08,507.884,336.723,507.884,336.723 C507.884,336.723,539.345,361.674,555.402,367.047 C558.868,368.207,573.619,368.467,573.619,368.467 C573.619,368.467,593.404,351.923,593.404,351.923 C593.404,351.923,591.023,337.013,591.023,337.013 z"/>
        </defs>
        <use xlink:href="#12" style="fill:#37d7ff;fill-opacity:1;fill-rule:nonzero;opacity:1;stroke:none;"/>
      </g>
    </defs>
    <use xlink:href="#11"/>
    <defs>
      <title>Path</title>
      <g id="13">
        <defs>
          <path id="14" d="M267.154,519.894 C263.485,497.884,263.025,475.521,264.152,453.291 C265.529,426.256,269.642,399.51,276.037,373.383 C282.439,347.251,291.114,321.734,301.735,297.023 C301.733,297.027,301.731,297.03,301.73,297.033 C315.304,265.696,331.37,235.306,353.511,209.271 C360.948,200.533,368.977,192.337,378.314,185.876 C377.259,184.177,376.203,182.478,375.147,180.78 C364.564,186.701,355.24,194.588,346.72,202.923 C321.279,227.799,301.852,258.355,286.678,290.183 C286.677,290.186,286.675,290.19,286.674,290.193 C274.616,315.489,265.681,342.314,259.977,369.754 C254.268,397.198,251.78,425.256,252.497,453.151 C253.083,476.003,255.569,498.974,261.285,521.141 C263.242,520.725,265.198,520.31,267.154,519.894 z"/>
        </defs>
        <use xlink:href="#14" style="fill:#ab4ffe;fill-opacity:1;fill-rule:nonzero;opacity:1;stroke:none;"/>
      </g>
    </defs>
    <use xlink:href="#13"/>
    <defs>
      <title>Shape 14825</title>
      <g id="15">
        <defs>
          <path id="16" d="M405.513,674.561 C405.513,674.561,369.862,710.212,369.862,710.212 C369.862,710.212,301.275,641.625,301.275,641.625 C301.275,641.625,336.926,605.974,336.926,605.974 C336.926,605.974,301.275,570.323,301.275,570.323 C301.275,570.323,369.862,501.736,369.862,501.736 C369.862,501.736,405.513,537.387,405.513,537.387 C405.513,537.387,441.164,501.736,441.164,501.736 C441.164,501.736,509.751,570.323,509.751,570.323 C509.751,570.323,474.1,605.974,474.1,605.974 C474.1,605.974,509.751,641.625,509.751,641.625 C509.751,641.625,441.164,710.212,441.164,710.212 C441.164,710.212,405.513,674.561,405.513,674.561 z"/>
        </defs>
        <use xlink:href="#16" style="fill:#35d8ff;fill-opacity:1;fill-rule:evenodd;opacity:1;stroke:none;"/>
        <use xlink:href="#16" style="fill:none;opacity:1;stroke:#ac4eff;stroke-linecap:butt;stroke-linejoin:miter;stroke-miterlimit:10;stroke-opacity:1;stroke-width:17;"/>
      </g>
    </defs>
    <use xlink:href="#15"/>
  </g>
</svg>
